<svg width="500" height="46" viewBox="0 0 500 46" fill="none" xmlns="http://www.w3.org/2000/svg">
<g clip-path="url(#clip0_4029_37052)">
<path d="M184.556 1.64855C184.134 1.3555 183.659 1.17642 183.196 0.964776C183.08 0.911865 182.956 0.879304 182.832 0.854884C181.761 0.64731 180.687 0.545558 179.6 0.65545C178.967 0.720571 178.331 0.765342 177.694 0.797903C176.739 0.846743 175.78 0.903724 174.826 0.911865C173.933 0.920005 173.048 1.06246 172.151 1.01362C172.015 1.14793 171.837 1.19677 171.655 1.23747C171.465 1.28224 171.32 1.38399 171.213 1.53866C171.11 1.68925 171.002 1.83984 170.899 1.98636C170.903 2.10847 170.936 2.23464 170.907 2.34453C170.7 3.17076 170.659 4.01733 170.634 4.85984C170.725 4.94531 170.841 5.0145 170.899 5.11218C171.312 5.82038 171.891 6.39019 172.474 6.95593C172.664 7.13908 172.887 7.24083 173.135 7.2856C173.507 7.35886 173.883 7.39957 174.251 7.4769C174.433 7.51353 174.602 7.599 174.78 7.66412C175.425 7.53388 175.884 7.84727 176.285 8.28277C176.413 8.42115 176.512 8.58396 176.624 8.73455C176.57 9.01539 176.599 9.28401 176.76 9.53229C176.69 10.6027 176.723 11.6609 176.938 12.7192C177 13.0244 177.008 13.3419 177.02 13.6553C177.058 14.6606 177.157 15.6618 177.264 16.659C177.529 19.1662 177.562 21.6774 177.215 24.1805C177.033 25.4951 177.058 26.8138 177.029 28.1325C177.02 28.6332 177.074 29.1378 176.934 29.6303C176.896 29.7646 176.822 29.8338 176.681 29.8827C176.359 29.9926 176.041 29.9763 175.76 29.8175C175.429 29.6344 175.107 29.4268 174.813 29.1826C174.032 28.5355 173.321 27.811 172.631 27.0702C171.374 25.7312 170.213 24.3148 169.051 22.8984C167.451 20.9448 165.877 18.9667 164.38 16.9317C163.632 15.9142 162.838 14.9292 162.078 13.9198C161.966 13.7733 161.917 13.5861 161.838 13.4151C161.698 13.2971 161.532 13.1954 161.417 13.0529C160.825 12.3244 160.255 11.5836 159.664 10.8551C159.189 10.269 158.771 9.65439 158.593 8.90549C158.523 8.60838 158.292 8.35603 158.345 8.02636C157.969 7.50946 157.833 6.89081 157.589 6.321C157.047 5.05113 156.399 3.84639 155.605 2.71491C155.088 1.97822 154.414 1.43283 153.604 1.04211C153.493 0.989196 153.377 0.915935 153.257 0.899654C152.001 0.728711 150.744 0.569978 149.508 1.01362C149.095 1.01362 148.785 1.17235 148.623 1.56308C148.487 1.65669 148.355 1.75844 148.214 1.84391C148.123 1.90089 148.016 1.93345 147.917 1.97822C147.879 2.21836 147.689 2.36488 147.561 2.54804C147.367 2.82887 147.152 3.10157 147.107 3.45566C147.011 3.47194 146.92 3.49229 146.83 3.51671C146.821 3.79755 146.743 4.0621 146.635 4.31852C146.681 4.67262 146.689 5.02671 146.619 5.38081C146.685 5.50291 146.652 5.67792 146.813 5.75119C146.813 5.94655 146.867 6.1297 146.987 6.2803C147.144 6.47973 147.309 6.67509 147.495 6.84604C148.008 7.31816 148.508 7.81471 149.066 8.23393C149.496 8.56361 149.81 8.88921 149.818 9.46716C149.818 9.77242 149.93 10.0858 150.016 10.387C150.103 10.6923 150.149 11.0016 150.149 11.319C150.149 11.5063 150.149 11.6976 150.149 11.8848C150.149 12.1453 150.231 12.3813 150.388 12.5889C150.463 12.6907 150.55 12.7843 150.628 12.882C150.785 13.0855 150.889 13.3134 150.897 13.5739C150.901 13.7 150.913 13.8262 150.913 13.9524C150.93 16.0322 150.88 18.112 151.095 20.1837C151.116 20.3709 151.095 20.5622 151.075 20.7494C150.967 21.5594 150.847 22.3693 150.748 23.1833C150.686 23.6839 150.62 24.1846 150.612 24.6892C150.587 26.1992 150.566 27.7133 150.657 29.2233C150.752 30.7944 150.802 32.3695 150.781 33.9446C150.769 34.897 150.566 35.8209 150.422 36.753C150.393 36.9361 150.314 37.1193 150.236 37.2902C150.157 37.4611 150.021 37.5833 149.818 37.6362C149.322 37.7623 148.834 37.9089 148.342 38.0432C148.198 38.3321 147.913 38.4827 147.689 38.6903C147.417 38.9427 147.239 39.2805 146.916 39.4799C146.838 39.72 146.784 39.9683 146.681 40.1962C146.379 40.8475 146.334 41.5272 146.367 42.2272C146.396 42.8092 146.639 43.3221 146.9 43.8267C146.925 43.8756 146.995 43.9081 147.044 43.9448C147.305 44.1361 147.578 44.2867 147.917 44.2704C148.165 44.4657 148.433 44.4902 148.719 44.3599C149.074 44.5024 149.446 44.5797 149.826 44.6041C150.397 44.6367 150.963 44.6652 151.533 44.6774C152.988 44.7059 154.448 44.7262 155.903 44.7466C156.283 44.7507 156.663 44.7669 157.043 44.7629C157.676 44.7547 158.304 44.71 158.908 44.4698C159.255 44.3314 159.635 44.2622 160.024 44.2663C160.346 43.7657 160.842 43.4645 161.317 43.1348C161.301 42.9313 161.429 42.7767 161.503 42.6017C161.64 42.565 161.722 42.4836 161.751 42.3534C161.834 41.9871 161.846 41.6248 161.698 41.2748C161.677 41.226 161.607 41.1934 161.557 41.1568C161.445 40.7945 161.359 40.4242 161.222 40.0741C160.879 39.1869 160.21 38.6374 159.313 38.3484C158.767 38.1734 158.205 38.0391 157.655 37.8722C157.473 37.8193 157.295 37.742 157.126 37.6524C156.841 37.5019 156.597 37.2983 156.436 37.0175C156.018 36.3012 155.77 35.5197 155.626 34.7098C155.473 33.8428 155.34 32.9678 155.27 32.0886C155.2 31.2095 155.204 30.3263 155.192 29.4431C155.15 26.9237 155.105 24.4003 155.076 21.8809C155.055 20.0534 155.043 18.226 155.068 16.3985C155.084 15.2019 155.171 14.0053 155.245 12.8128C155.249 12.7192 155.402 12.6255 155.502 12.5482C155.539 12.5197 155.621 12.5238 155.675 12.536C155.799 12.5645 155.927 12.5889 156.035 12.6459C156.485 12.8982 156.841 13.2645 157.209 13.6105C158.093 14.4449 158.821 15.4013 159.486 16.4026C160.71 18.2504 161.851 20.143 162.632 22.2269C162.81 22.7031 163.078 23.1263 163.396 23.5293C164.145 24.4735 164.851 25.4463 165.6 26.3905C166.191 27.1394 166.703 27.9331 167.075 28.8122C167.637 30.1594 168.431 31.3845 169.183 32.6259C169.642 33.3829 170.159 34.1033 170.601 34.8726C170.82 35.2552 171.188 35.536 171.366 35.9471C171.862 36.1384 172.197 36.521 172.399 36.9687C172.813 37.8722 173.185 38.7961 173.271 39.7974C173.238 39.8421 173.18 39.8828 173.176 39.9276C173.156 40.0904 173.156 40.2532 173.147 40.416C173.193 40.5056 173.263 40.5463 173.362 40.5463C173.383 40.9044 173.552 41.2463 173.482 41.6167C173.647 41.9545 173.813 42.2923 173.97 42.6342C173.995 42.6871 173.978 42.7604 173.978 42.8214C174.185 42.9598 174.317 43.1674 174.47 43.3587C174.9 43.8959 175.45 44.2704 176.119 44.4739C176.235 44.5105 176.355 44.539 176.475 44.5716C176.603 44.5024 176.739 44.4454 176.876 44.4169C176.735 44.4454 176.603 44.5065 176.475 44.5716C176.586 44.6245 176.69 44.714 176.805 44.7262C177.549 44.8158 178.302 44.8524 179.05 44.7588C179.17 44.7425 179.281 44.6774 179.397 44.6326C179.641 44.6693 179.852 44.5919 180.071 44.4983C180.228 44.4332 180.406 44.4128 180.575 44.3681C180.873 43.9488 181.17 43.5337 181.468 43.1145C181.588 42.565 181.699 42.0156 181.741 41.4498C181.786 40.8271 181.898 40.2044 181.968 39.5817C182.005 39.2723 182.014 38.9589 182.034 38.6455C182.113 38.6415 182.175 38.6048 182.22 38.5356C182.233 38.1083 182.249 37.6809 182.266 37.2495C182.195 37.2007 182.125 37.2007 182.055 37.2454C181.972 37.0745 181.885 36.9076 181.807 36.7367C181.278 35.6418 181.017 34.4941 181.063 33.273C181.133 31.2624 181.088 29.2518 181.03 27.2412C181.005 26.3621 181.017 25.4829 181.013 24.6038C181.013 23.4723 181.042 22.3449 181.237 21.2256C181.389 20.3505 181.439 19.4755 181.013 18.6452C180.922 18.2097 180.869 17.7742 181.113 17.3631C181.311 17.0253 181.365 16.6549 181.352 16.2723C181.34 15.8938 181.303 15.5194 181.299 15.1449C181.29 14.2658 181.286 13.3866 181.303 12.5075C181.311 12.0028 181.402 11.5144 181.575 11.0301C181.852 10.2608 182.088 9.47937 182.353 8.70606C182.782 7.45248 182.663 7.58272 183.741 7.08617C183.915 7.00477 184.08 6.91116 184.246 6.81348C185.316 6.17447 185.841 5.22615 185.878 4.00919C185.911 2.97539 185.415 2.21022 184.585 1.6282L184.556 1.64855Z" fill="white"/>
<path d="M370.793 19.5366C370.706 19.3006 370.59 19.0726 370.499 18.8366C370.28 18.2464 370.049 17.6603 369.863 17.058C369.677 16.4556 369.507 15.8491 369.4 15.2305C369.313 14.738 369.354 14.2252 369.425 13.7246C369.433 13.6635 369.441 13.5984 369.445 13.5373C369.487 13.0245 369.392 12.5361 369.185 12.064C368.904 11.429 368.619 10.7982 368.276 10.1917C367.552 8.92595 366.725 7.72935 365.767 6.62636C365.56 6.38622 365.32 6.17051 365.217 5.86118C365.109 5.80013 364.985 5.75536 364.89 5.67396C364.605 5.42975 364.324 5.17334 364.051 4.91692C363.315 4.22908 362.518 3.60636 361.679 3.05283C359.769 1.78704 357.665 0.94453 355.42 0.452051C354.681 0.289248 353.932 0.159005 353.193 0.000272146C352.878 0.0776036 352.556 0.0491131 352.238 0.0328328C350.96 -0.0200782 349.679 -0.0160082 348.402 0.0653934C347.889 0.097954 347.393 0.175285 346.893 0.301458C345.901 0.549732 344.917 0.806147 343.962 1.16838C343.847 1.21315 343.71 1.1928 343.586 1.20501C343.429 1.41259 343.194 1.48992 342.97 1.59574C341.673 2.19811 340.433 2.89817 339.358 3.85463C339.312 3.89533 339.25 3.91569 339.197 3.94825C339.106 4.10698 339.04 4.28199 338.92 4.41631C338.209 5.2059 337.804 6.14202 337.56 7.15547C337.518 7.1921 337.456 7.22466 337.436 7.26943C337.337 7.53398 337.196 7.77412 337.035 8.00204C336.704 8.0346 336.427 8.17299 336.196 8.40905C335.749 8.86897 335.394 9.38994 335.138 9.97196C334.935 10.4359 334.737 10.8959 334.538 11.3599C334.137 11.6163 334.059 11.9582 334.257 12.3733C334.084 13.0327 333.885 13.6839 333.74 14.3514C333.339 16.1666 332.996 17.99 332.802 19.8419C332.748 20.3344 332.662 20.8228 332.591 21.3112C332.517 21.8037 332.447 22.2921 332.505 22.7886C332.347 23.4358 332.347 24.0056 332.505 24.6609C332.414 25.6743 332.624 26.6633 332.761 27.6605C332.934 28.9222 333.315 30.1107 333.893 31.2462C334.236 31.9219 334.571 32.5975 334.91 33.2731C334.885 33.5621 335.014 33.8063 335.183 34.022C335.245 34.0994 335.365 34.1319 335.456 34.1808C335.977 35.125 336.435 36.1059 336.638 37.156C336.898 38.491 337.217 38.5073 338.023 39.0404C338.341 39.2521 338.672 39.4393 338.986 39.655C339.085 39.7242 339.159 39.8422 339.213 39.9521C339.267 40.062 339.3 40.1923 339.312 40.3144C339.374 40.9819 339.717 41.4988 340.197 41.9424C340.474 42.1988 340.771 42.439 341.081 42.6628C341.809 43.1919 342.632 43.5379 343.475 43.835C343.776 44.1118 344.111 44.1932 344.496 44.01C344.868 44.0751 345.24 44.1687 345.616 44.1932C346 44.2176 346.36 44.2908 346.699 44.474C346.81 44.531 346.926 44.588 347.046 44.6205C348.377 45.0112 349.745 45.2432 351.122 45.3979C351.432 45.4345 351.75 45.3898 352.064 45.3857C352.184 45.4223 352.3 45.4915 352.42 45.4915C353.486 45.5037 354.557 45.5078 355.623 45.5037C355.817 45.5037 355.97 45.3816 356.094 45.2351C356.326 45.1293 356.574 45.0519 356.784 44.9176C357.119 44.706 357.471 44.6042 357.863 44.6164C358.115 44.6246 358.372 44.6164 358.624 44.6246C358.959 44.6409 359.236 44.5473 359.488 44.3193C360.848 43.0942 362.29 41.9628 363.749 40.8557C364.051 40.6278 364.349 40.3917 364.646 40.1556C365.291 39.6428 365.882 39.0771 366.44 38.4747C366.663 38.2346 366.787 37.9537 366.878 37.6525C366.945 37.5589 367.048 37.4694 367.069 37.3636C367.172 36.9037 367.25 36.4356 367.337 35.9716C367.808 35.5483 368.263 35.1047 368.759 34.714C369.177 34.3843 369.458 33.9895 369.602 33.4929C369.859 33.2487 369.9 32.9353 369.722 32.6138C369.875 31.6329 370.086 30.6642 370.371 29.7118C370.619 29.488 370.665 29.1705 370.499 28.8327C370.801 27.6727 370.991 26.4883 371.185 25.3121C371.359 24.2579 371.392 23.1834 371.343 22.1089C371.301 21.2176 371.103 20.3629 370.789 19.5326L370.793 19.5366ZM365.729 23.5538C365.531 24.9254 365.333 26.293 365.093 27.6564C364.919 28.6455 364.667 29.6223 364.378 30.5869C364.192 31.2055 363.902 31.7469 363.53 32.2597C363.373 32.4754 363.175 32.6097 362.914 32.6626C362.79 32.6871 362.658 32.6952 362.538 32.7237C362.352 32.7685 362.175 32.8254 362.084 33.0249C362.005 33.1958 361.931 33.383 361.807 33.5173C361.418 33.9406 361.174 34.4575 360.806 34.893C359.839 36.0367 358.665 36.8426 357.173 37.2048C356.425 37.388 355.681 37.5304 354.908 37.5589C353.565 37.6118 352.225 37.5589 350.882 37.5142C350.039 37.4857 349.237 37.27 348.447 37.0339C347.964 36.8914 347.468 36.692 347.129 36.2931C346.149 35.1454 344.876 34.4657 343.454 34.0098C343.066 33.8837 342.822 33.6191 342.644 33.2569C341.983 31.8975 341.371 30.5136 340.858 29.0932C340.792 28.9141 340.709 28.7472 340.631 28.5722C340.718 28.2954 340.656 28.0309 340.519 27.7908C340.47 27.7093 340.354 27.6646 340.271 27.6035C340.23 27.4326 340.18 27.2616 340.151 27.0866C340.102 26.7895 340.003 26.5168 339.837 26.2645C339.932 25.9551 339.846 25.6662 339.726 25.3853C339.705 25.3324 339.639 25.2999 339.593 25.2592C338.845 22.5322 338.891 20.4524 339.184 18.0307C339.221 17.7214 339.267 17.4121 339.308 17.1027C339.507 16.8545 339.527 16.6469 339.378 16.3457C339.602 15.2997 339.812 14.2537 340.131 13.2321C340.561 11.8442 341.098 10.5051 341.846 9.25155C343.454 6.55716 345.802 4.86808 348.91 4.20466C349.596 4.05814 350.287 3.94011 350.994 3.91976C351.572 3.90755 352.134 3.91569 352.697 4.09884C353.498 4.36339 354.329 4.35932 355.16 4.22908C355.412 4.18838 355.664 4.22908 355.875 4.41223C356.069 4.57911 356.268 4.73377 356.47 4.88843C357.442 5.62105 358.496 6.199 359.69 6.49611C359.951 6.56123 360.162 6.6752 360.352 6.84207C360.732 7.17582 361.112 7.5177 361.505 7.83517C362.815 8.88932 363.836 10.1551 364.444 11.7262C364.489 11.8442 364.555 11.9541 364.613 12.064C364.506 12.3814 364.605 12.6704 364.75 12.9472C364.774 12.996 364.849 13.0245 364.898 13.0611C365.196 14.0909 365.428 15.1328 365.531 16.2032C365.568 16.5777 365.643 16.9521 365.696 17.3225C365.878 18.6127 365.915 22.3124 365.733 23.5416L365.729 23.5538Z" fill="white"/>
<path d="M223.347 26.8587C223.078 26.4313 222.784 26.0203 222.479 25.6173C221.792 24.7097 221.119 23.798 220.507 22.8375C220.168 22.3002 219.751 21.824 219.304 21.3763C219.031 21.1036 218.725 20.8716 218.382 20.7088C217.518 20.3059 216.659 19.9029 215.704 19.7279C214.761 19.5529 213.827 19.3575 212.877 19.268C212.079 19.0116 211.244 18.9953 210.421 18.9058C210.037 18.8651 209.661 18.8529 209.276 18.9058C208.326 19.0441 207.367 19.0238 206.412 18.9424C205.763 18.8895 205.163 18.6778 204.692 18.2098C204.506 18.0266 204.295 17.9005 204.056 17.8028C203.229 17.469 202.406 17.1312 201.584 16.7934C200.881 16.5044 200.137 16.3009 199.48 15.9102C198.914 15.2875 198.715 14.4734 198.339 13.749C198.108 13.3053 197.959 12.8169 197.748 12.3611C197.368 11.5308 197.293 10.6679 197.397 9.78065C197.426 9.52831 197.475 9.2841 197.599 9.06025C197.723 8.84046 197.818 8.6044 197.967 8.4009C198.529 7.63979 199.05 6.85427 199.513 6.02397C199.761 5.58033 200.174 5.2588 200.646 5.04308C200.935 4.91284 201.237 4.80295 201.53 4.68492C201.848 4.81109 202.146 4.78667 202.411 4.55874C202.725 4.51397 203.039 4.4692 203.353 4.4285C204.114 4.33082 204.874 4.32675 205.631 4.44478C207.21 4.69306 208.789 4.73376 210.376 4.55467C210.438 4.54653 210.504 4.55467 210.566 4.55467C210.822 4.56281 211.074 4.59538 211.302 4.71341C211.694 4.91691 212.091 5.11634 212.476 5.33613C213.757 6.07281 214.828 7.03335 215.629 8.26658C216.183 9.11723 216.609 10.0167 216.626 11.0546C216.452 11.3354 216.46 11.5471 216.659 11.8116C216.692 12.3611 216.956 12.8413 217.151 13.3379C217.171 13.3908 217.221 13.4356 217.266 13.4763C217.618 13.8344 218.014 14.0868 218.552 14.0176C218.82 14.213 219.135 14.1275 219.432 14.1356C219.614 14.1356 219.796 14.1153 219.936 13.981C220.449 13.9158 220.904 13.7123 221.321 13.4152C221.474 13.3053 221.627 13.1832 221.739 13.0367C222.045 12.6378 222.288 12.2105 222.412 11.7099C222.673 10.6679 222.764 9.62599 222.549 8.5637C222.462 8.13634 222.45 7.69677 222.404 7.26534C222.441 7.22057 222.495 7.18394 222.508 7.13103C222.603 6.79729 222.561 6.46761 222.425 6.15014C222.404 6.10537 222.342 6.07281 222.301 6.03618C222.123 5.43381 222.045 4.81923 222.069 4.19244C222.086 3.75694 222.119 3.32551 222.144 2.89408C222.156 2.63767 222.078 2.39753 221.958 2.18182C221.838 1.96611 221.706 1.74632 221.54 1.56317C220.883 0.830554 220.089 0.370635 219.052 0.480528C218.928 0.492738 218.8 0.500878 218.68 0.533439C218.494 0.582279 218.316 0.663681 218.254 0.859045C218.06 1.4777 217.713 1.97425 217.142 2.31206C216.911 2.45044 216.675 2.48708 216.427 2.36904C215.865 2.09228 215.357 1.70969 214.766 1.48991C214.658 1.0829 214.327 0.964867 213.939 1.19279C213.815 1.17651 213.678 1.18465 213.563 1.14395C212.711 0.854975 211.827 0.802064 210.942 0.806134C209.611 0.806134 208.284 0.822414 206.953 0.842764C205.874 0.859045 204.804 0.924166 203.742 1.1236C203.432 1.18058 203.113 1.18058 202.799 1.205C202.729 1.09918 202.626 1.05441 202.497 1.06662C202.382 1.07476 202.266 1.07883 202.15 1.08697C202.113 1.11139 202.076 1.13988 202.034 1.15616C201.927 1.19686 201.894 1.26605 201.939 1.3678C201.336 1.53875 200.708 1.62829 200.125 1.8847C199.621 1.94168 199.182 2.22659 198.682 2.29578C198.529 2.4016 198.385 2.52778 198.215 2.60511C197.095 3.11794 196.26 3.94416 195.541 4.9047C194.789 5.90594 194.181 6.98858 193.652 8.11599C193.441 8.5637 193.305 9.04804 193.313 9.5568C193.28 9.60971 193.23 9.65448 193.218 9.71146C193.065 10.4929 193.069 11.2784 193.189 12.0599C193.205 12.1657 193.313 12.2593 193.379 12.357C193.54 12.8821 193.598 13.4274 193.805 13.9443C194.168 14.8479 194.441 15.7881 194.689 16.7283C194.528 17.0539 194.586 17.3917 194.846 17.6115C194.892 17.7946 194.962 17.9737 194.979 18.1609C195.016 18.5679 195.235 18.8447 195.541 19.0971C197.14 20.4158 199.001 21.1891 201.001 21.6856C202.249 21.995 203.518 22.0641 204.796 22.0601C205.498 22.056 206.197 22.0804 206.9 22.0723C207.673 22.0641 208.412 22.2758 209.173 22.349C211.041 22.5281 212.769 23.1386 214.431 23.9689C215.005 24.2579 215.489 24.6568 215.857 25.194C217.163 27.0988 218.043 29.1583 218.163 31.4823C218.122 31.5922 218.043 31.698 218.039 31.8079C218.023 32.219 218.023 32.6341 218.035 33.0452C218.035 33.1551 218.114 33.2609 218.155 33.3708C218.18 33.8918 217.928 34.3395 217.762 34.8116C217.51 35.532 217.105 36.167 216.617 36.753C216.006 37.4857 215.303 38.1125 214.493 38.6253C213.798 39.0689 213.075 39.4637 212.314 39.7853C211.905 39.9603 211.479 40.1068 211.091 40.3144C210.735 40.5057 210.372 40.5423 209.987 40.5219C209.541 40.5016 209.094 40.4975 208.665 40.3632C208.627 40.3103 208.607 40.237 208.557 40.2126C208.272 40.062 207.974 39.9847 207.656 40.1109C207.061 39.8911 206.478 39.6469 205.874 39.4637C205.081 39.2277 204.349 38.8573 203.605 38.5113C202.679 38.0799 201.844 37.5223 201.183 36.7368C200.972 36.4885 200.699 36.342 200.369 36.2972C199.914 36.2361 199.53 36.0367 199.182 35.7437C198.893 35.5035 198.579 35.2919 198.281 35.0558C197.971 34.8075 197.785 34.4779 197.76 34.0912C197.723 33.5336 197.727 32.9679 197.715 32.4103C197.661 32.3777 197.595 32.3574 197.55 32.3167C196.967 31.7794 196.256 31.58 195.483 31.5515C195.38 31.405 195.185 31.4416 195.057 31.3521C194.706 31.4335 194.359 31.4375 194.011 31.3521C193.846 31.3765 193.681 31.3928 193.515 31.4294C193.408 31.4538 193.309 31.5026 193.205 31.5393C192.862 31.4701 192.623 31.6532 192.391 31.8608C192.432 32.2393 192.35 32.6056 192.267 32.9679C192.127 33.5784 192.06 34.197 192.023 34.8198C191.883 37.2455 191.841 39.6754 191.866 42.1052C191.87 42.6017 191.92 43.0983 191.936 43.5989C191.945 43.8472 191.92 44.0955 191.907 44.3437C192.048 44.7223 192.18 45.1008 192.441 45.4223C192.809 45.402 193.131 45.5444 193.453 45.695C193.635 46.0084 194.024 46.0857 194.346 45.8741C194.602 45.87 194.859 45.8659 195.115 45.8619C195.413 46.0206 195.669 45.9881 195.925 45.7438C195.958 45.7113 195.95 45.6299 195.958 45.5729C196.148 45.4467 196.33 45.3165 196.525 45.1944C196.669 45.1048 196.818 45.0316 196.967 44.9502C197.178 44.5228 197.463 44.1687 197.773 43.953C197.769 43.6274 197.971 43.3873 198.132 43.1309C198.414 42.9558 198.744 42.964 199.054 42.8948C201.419 43.6396 203.766 44.4211 206.139 45.1333C206.383 45.2066 206.618 45.2961 206.862 45.3816C206.904 45.4264 206.937 45.4915 206.986 45.5078C207.408 45.6543 207.817 45.6299 208.206 45.4101C208.251 45.3857 208.264 45.3083 208.293 45.2554C209.161 45.0641 210.045 45.0316 210.926 44.9705C211.868 44.9054 212.815 44.8484 213.761 44.7874C214.518 44.7385 215.266 44.649 215.993 44.4089C216.291 44.3112 216.605 44.2664 216.915 44.1972C217.179 44.2745 217.394 44.1199 217.63 44.0548C217.667 44.0181 217.696 43.9734 217.737 43.9449C217.837 43.8798 217.874 43.7943 217.849 43.6762C218.312 43.5745 218.758 43.4076 219.23 43.3547C219.585 43.0983 219.994 42.9151 220.284 42.5773C220.652 42.15 221.011 41.7185 221.35 41.2708C221.458 41.1284 221.503 40.933 221.557 40.758C221.611 40.5789 221.635 40.3917 221.673 40.2085C221.859 40.1556 222.007 40.0417 222.073 39.8707C222.181 39.5899 222.264 39.2968 222.355 39.0119C222.842 38.6904 223.252 38.316 223.247 37.6729C223.624 36.2768 223.847 34.8483 224.19 33.4441C224.235 33.2609 224.248 33.0737 224.264 32.8865C224.343 31.9463 224.363 31.0061 224.33 30.0618C224.293 28.9059 223.954 27.8355 223.338 26.8546L223.347 26.8587ZM222.206 6.52459C222.206 6.5775 222.206 6.62634 222.21 6.67925C222.214 6.73216 222.222 6.78101 222.235 6.82985C222.222 6.78101 222.214 6.7281 222.21 6.67925C222.206 6.63041 222.202 6.5775 222.206 6.52459Z" fill="white"/>
<path d="M416.89 1.38767C416.836 1.28998 416.692 1.20044 416.58 1.18823C415.948 1.1109 415.311 1.04985 414.675 0.992868C413.654 0.899256 412.633 0.846345 411.607 0.846345C410.839 0.846345 410.082 0.895186 409.326 1.07834C408.065 1.38767 406.796 1.39581 405.54 1.01322C405.42 0.976588 405.296 0.935887 405.172 0.919607C404.915 0.891116 404.659 0.887046 404.419 0.996938C404.246 1.07834 404.076 1.15974 403.903 1.24521C403.543 1.4243 403.287 1.71734 403.146 2.06737C402.464 3.78087 403.543 5.37227 405.13 5.70195C405.44 5.76707 405.763 5.78335 406.081 5.82812C406.403 5.87289 406.693 6.0072 406.97 6.16594C407.313 6.36537 407.565 6.65435 407.668 7.03286C407.838 7.6393 407.954 8.26203 407.937 8.89696C407.92 9.59294 407.982 10.2808 408.049 10.9727C408.086 11.3512 408.148 11.7175 408.326 12.0635C408.441 12.2955 408.441 12.5519 408.408 12.8042C408.255 13.9316 408.177 15.0591 408.288 16.1946C408.54 18.7058 408.474 21.2293 408.586 23.7446C408.594 23.9277 408.524 24.115 408.487 24.2981C408.611 24.5545 408.615 24.8069 408.462 25.0552C408.47 25.1773 408.507 25.3075 408.487 25.4255C408.408 25.861 408.342 26.8582 408.375 27.2408C408.458 28.1728 408.474 29.109 408.371 30.041C408.342 30.2933 408.243 30.5213 408.09 30.7248C408.156 31.0219 408.115 31.2987 407.945 31.5551C407.966 32.0598 407.718 32.5115 407.681 33.0081C407.648 33.5006 407.569 33.993 407.482 34.4815C407.4 34.9699 407.284 35.4542 407.185 35.9385C406.986 35.8775 406.933 36.0525 406.829 36.1461C406.804 36.3333 406.775 36.5206 406.751 36.7119L406.842 36.7851H406.957C406.895 37.2247 406.668 37.5422 406.242 37.7172C406.189 37.8271 406.155 37.9573 406.081 38.0468C405.217 39.0359 404.25 39.9109 403.146 40.6395C403.043 40.7046 402.915 40.7331 402.799 40.7779C402.473 41.1116 402.109 41.3843 401.625 41.4616C401.431 41.714 401.113 41.7384 400.852 41.8686C400.373 42.1088 399.856 42.235 399.319 42.2594C399.203 42.3082 399.091 42.3937 398.976 42.3937C398.285 42.4059 397.599 42.4059 396.909 42.4018C396.785 42.4018 396.653 42.3896 396.537 42.3489C395.834 42.0884 395.082 41.9826 394.387 41.6896C393.697 41.3965 393.003 41.0953 392.391 40.668C391.986 40.3871 391.502 40.204 391.213 39.7726C391.097 39.7359 390.961 39.7196 390.866 39.6545C390.556 39.4429 390.25 39.219 389.961 38.9789C388.704 37.9329 388.324 37.8148 387.844 35.8042C387.972 35.5356 387.931 35.267 387.803 35.0146C387.757 34.9292 387.646 34.8763 387.563 34.8071C387.456 34.5954 387.41 34.3675 387.394 34.1355C387.609 33.818 387.538 33.468 387.228 33.2889C387.08 32.9552 387.026 32.6052 387.009 32.247C387.129 32.1249 387.158 31.9743 387.154 31.8156C387.154 31.7097 387.146 31.6039 387.142 31.5022C387.092 31.3516 387.096 31.1684 386.893 31.1114C386.695 30.3178 386.604 29.5119 386.571 28.6979C386.377 23.887 386.245 19.0721 386.29 14.2572C386.29 13.8217 386.261 13.3822 386.414 12.9589C386.278 12.6821 386.282 12.4176 386.484 12.1693C386.348 11.921 386.356 11.6809 386.522 11.453C386.36 10.9361 386.464 10.4354 386.617 9.9389C386.455 9.19407 386.579 8.45739 386.687 7.72477C386.712 7.54569 386.84 7.39103 387.034 7.31777C387.679 7.06949 388.315 6.80901 388.969 6.57701C389.762 6.29211 390.403 5.82405 390.895 5.14842C391.044 4.94491 391.168 4.73734 391.209 4.48499C391.3 3.93553 391.432 3.40235 391.333 2.82847C391.254 2.38076 391.039 2.0226 390.804 1.66036C390.481 1.64001 390.25 1.39988 389.961 1.31847C389.138 1.08241 388.328 0.769014 387.452 0.760874C387.261 0.760874 387.096 0.679472 386.947 0.56958C386.575 0.703893 386.187 0.630631 385.806 0.630631C385.029 0.630631 384.289 0.769014 383.591 1.11497C383.293 1.26149 382.975 1.24521 382.657 1.18009C382.099 0.834135 381.437 0.846345 380.83 0.679472C380.35 0.805645 379.858 0.789364 379.375 0.813785C378.866 0.838205 378.42 0.996938 378.002 1.25742C377.8 1.3836 377.597 1.5057 377.395 1.63187C377.374 1.68885 377.366 1.75804 377.333 1.80281C376.948 2.32785 376.783 2.92615 376.725 3.55702C376.667 4.18381 376.667 4.8106 376.969 5.39669C377.023 5.50251 377.019 5.6409 377.043 5.763C377.457 5.94208 377.701 6.34502 378.106 6.54852C378.618 6.80494 379.106 7.10612 379.66 7.27707C379.842 7.33405 380.028 7.38289 380.206 7.45208C380.441 7.54569 380.669 7.65965 380.904 7.76141C381.045 7.82246 381.169 8.04631 381.16 8.22539C381.119 9.16558 381.041 10.1098 381.045 11.05C381.045 12.4339 381.094 13.8177 381.14 15.2015C381.16 15.7672 381.185 16.3371 381.293 16.8906C381.499 17.9447 381.599 19.007 381.702 20.0693C381.756 20.631 381.851 21.1927 381.9 21.7543C381.958 22.3933 381.718 22.9957 381.648 23.6184C381.615 23.9318 381.607 24.2411 381.673 24.5545C381.801 25.1691 381.954 25.7837 382.016 26.4105C382.078 27.0332 382.033 27.6681 382.041 28.2949C382.045 28.7345 382.07 29.1741 382.062 29.6177C382.033 31.0056 382.181 32.3813 382.326 33.757C382.417 34.6402 382.69 35.4786 382.992 36.3049C383.165 36.777 383.359 37.245 383.591 37.6927C383.793 38.0916 383.938 38.4986 384.021 38.9341C384.066 39.1783 384.17 39.4144 384.232 39.6586C384.438 40.4767 384.901 41.1401 385.513 41.714C386.832 42.9594 388.398 43.7775 390.126 44.3107C390.858 44.5386 391.593 44.734 392.333 44.9334C393.536 45.255 395.896 45.6335 397.049 45.6904C397.43 45.7108 397.818 45.7108 398.199 45.6823C398.897 45.6294 399.596 45.5521 400.294 45.4788C400.484 45.4585 400.674 45.43 400.86 45.3771C401.84 45.1003 402.84 44.8886 403.779 44.4735C404.18 44.2985 404.585 44.095 405.039 44.0543C405.143 43.8874 405.287 43.8101 405.486 43.8386C405.672 43.5781 405.957 43.4397 406.226 43.2891C407.387 42.646 408.35 41.7791 409.173 40.7534C409.289 40.6069 409.413 40.4726 409.59 40.3953C409.76 39.9069 409.971 39.6016 410.343 39.276C410.401 39.1051 410.425 38.9138 410.52 38.7632C411.099 37.8189 411.5 36.7933 411.975 35.8002C412.215 35.2995 412.364 34.7745 412.513 34.2454C412.649 34.2576 412.728 34.1966 412.765 34.0663C412.794 33.9605 412.835 33.8547 412.872 33.7529C412.835 33.6267 412.897 33.4639 412.74 33.3744C412.806 32.9796 412.864 32.5807 413.112 32.2429C413.091 32.0638 413.054 31.8848 413.05 31.7057C413.042 30.737 413.042 29.7683 413.038 28.7996C413.038 28.5554 413.054 28.3153 413.133 28.0833C412.996 27.7211 413.017 27.3466 413.017 26.9722C413.009 24.5383 413.017 22.1044 413 19.6705C412.988 17.2976 413.112 14.9288 413.215 12.56C413.22 12.4379 413.273 12.3199 413.306 12.1978C413.224 11.9007 413.273 11.6076 413.306 11.3146C413.381 10.7244 413.492 10.1383 413.418 9.54003C413.612 9.03127 413.6 8.5103 413.513 7.98933C413.782 7.32998 414.179 6.78052 414.836 6.4427C414.889 6.41421 414.931 6.3613 414.98 6.3206C415.224 6.25955 415.468 6.20257 415.712 6.14152C415.836 6.10895 415.927 6.02348 415.981 5.90138C416.448 5.85254 416.807 5.57984 417.175 5.3275C417.56 5.06294 417.783 4.69257 417.804 4.22044C417.828 3.64656 417.775 3.08896 417.51 2.56392C417.312 2.16912 417.117 1.77025 416.894 1.39174L416.89 1.38767Z" fill="white"/>
<path d="M409.015 1.62842C409.015 1.62842 409.015 1.62842 409.019 1.62842L409.01 1.63799L409.015 1.62842Z" fill="white"/>
<path d="M329.791 1.97408C329.671 1.93745 329.534 1.92524 329.431 1.86012C328.832 1.47753 328.191 1.21298 327.472 1.16007C325.579 0.73678 323.665 0.773411 321.755 1.00541C320.792 1.12344 319.85 1.16007 318.899 0.976915C318.775 0.952494 318.643 0.968775 318.519 0.964704C318.465 0.932144 318.415 0.879233 318.357 0.867023C317.923 0.765271 317.489 0.73271 317.051 0.842602C316.865 0.891443 316.704 0.980985 316.63 1.17228C316.328 1.24554 316.022 1.30659 315.729 1.4002C315.315 1.53452 314.91 1.69325 314.472 1.74209C314.406 1.85605 314.307 1.92931 314.178 1.96594C313.852 2.06363 313.641 2.27934 313.538 2.60088C313.41 2.62937 313.315 2.70263 313.286 2.82066C313.228 3.04858 313.178 3.27651 313.124 3.50443C313.17 3.73236 313.215 3.95621 313.265 4.18414C313.29 4.30217 313.36 4.38764 313.472 4.44869C313.629 4.90047 314.005 5.11618 314.418 5.25457C315.001 5.454 315.6 5.61273 316.196 5.78775C316.439 5.86101 316.638 5.99939 316.828 6.15812C317.068 6.35349 317.097 6.58955 316.873 6.95586C316.721 8.00594 316.191 8.90543 315.675 9.80898C315.646 9.86189 315.588 9.89445 315.543 9.93922C315.505 10.1183 315.497 10.3096 315.423 10.4724C315.071 11.262 314.716 12.0475 314.34 12.8249C314.067 13.3825 313.835 13.9605 313.695 14.5547C313.571 15.0634 313.319 15.4582 312.963 15.8123C312.876 15.8978 312.781 15.9792 312.69 16.0647C312.484 16.5043 312.306 16.956 312.066 17.3753C311.789 17.8555 311.777 18.4253 311.488 18.8975C311.459 18.9463 311.401 18.9829 311.355 19.0236C311.343 19.1417 311.355 19.2719 311.31 19.3777C311.041 19.9882 310.723 20.5743 310.285 21.0872C309.966 21.1604 309.681 21.0668 309.4 20.9366C308.937 20.0941 308.47 19.2516 308.015 18.4009C307.933 18.2463 307.92 18.059 307.875 17.8881C307.594 17.7497 307.474 17.5136 307.466 17.2165C307.354 17.1636 307.222 17.1311 307.139 17.0496C306.871 16.7932 306.61 16.5246 306.362 16.2478C306.284 16.1624 306.263 16.0281 306.217 15.9141C306.122 15.8408 306.015 15.7798 305.94 15.6902C305.63 15.3239 305.395 14.9088 305.196 14.4733C305.147 14.3675 305.151 14.2413 305.13 14.1273C305.081 14.0948 305.01 14.0744 304.977 14.0297C304.481 13.2767 304.085 12.4708 303.75 11.6364C303.729 11.5835 303.746 11.5184 303.746 11.4574C303.671 11.3597 303.576 11.2701 303.522 11.1643C303.179 10.509 302.84 9.84968 302.514 9.18626C302.464 9.08451 302.481 8.94613 302.464 8.82402C302.415 8.78332 302.353 8.75076 302.324 8.70192C302.113 8.31933 301.89 7.94489 301.716 7.55009C301.617 7.32623 301.596 7.06575 301.559 6.82155C301.497 6.44303 301.724 5.99532 302.212 5.79182C302.563 5.64529 302.923 5.52726 303.307 5.51098C303.622 5.4947 303.94 5.49877 304.254 5.46214C305.221 5.34818 305.899 4.82314 306.251 3.94807C306.465 3.41489 306.474 2.85322 306.114 2.34039C305.969 2.13689 305.85 1.9171 305.717 1.70546C305.473 1.60371 305.225 1.50602 304.982 1.40427C304.849 1.20077 304.614 1.18042 304.415 1.09088C304.295 1.15193 304.126 1.0746 304.043 1.23333C303.857 1.19263 303.667 1.15193 303.481 1.10716C302.208 0.822252 300.947 0.826322 299.699 1.24554C299.517 1.30659 299.335 1.36764 299.149 1.4002C299.029 1.42055 298.893 1.41648 298.773 1.38799C298.401 1.30252 298.021 1.23333 297.665 1.09902C297.178 0.919934 296.677 0.854812 296.165 0.822252C294.821 0.74085 293.482 0.74899 292.139 0.842602C291.759 0.606538 291.403 0.72864 291.308 1.12344C290.948 1.26182 290.614 1.4409 290.308 1.6729C289.948 1.94966 289.675 2.30376 289.539 2.73112C289.341 3.34163 289.324 3.96842 289.469 4.59521C289.498 4.71325 289.555 4.83942 289.638 4.92489C289.944 5.2505 290.299 5.52726 290.721 5.69006C291.196 5.87322 291.664 6.07672 292.168 6.18254C292.73 6.30058 293.288 6.4471 293.834 6.62211C294.507 6.83783 295.111 7.1675 295.611 7.68847C296.665 8.78739 297.669 9.92701 298.633 11.1033C300.922 13.9035 302.927 16.8909 304.8 19.972C305.325 20.8348 305.8 21.7262 306.288 22.6094C306.374 22.7722 306.399 22.9675 306.453 23.1466C306.544 23.228 306.668 23.2972 306.722 23.399C306.899 23.7327 307.036 24.0868 307.218 24.4206C307.466 24.8764 307.569 25.3607 307.553 25.8736C307.511 27.1312 307.466 28.3889 307.416 29.6425C307.412 29.7646 307.342 29.8785 307.305 30.0006C307.383 30.2448 307.383 30.4972 307.35 30.7495C307.305 31.124 307.251 31.4984 307.205 31.8729C306.949 32.1293 306.949 32.3979 307.205 32.6421C307.284 33.0654 307.383 33.4846 307.437 33.912C307.536 34.669 307.404 35.3813 306.961 36.0243C306.61 36.5331 306.321 37.0785 306.011 37.6117C305.821 37.9373 305.531 37.9576 305.205 37.8762C304.713 38.0024 304.229 38.1571 303.733 38.2425C302.621 38.4379 301.741 39.0077 300.968 39.777C300.683 40.0619 300.555 40.4038 300.559 40.7904C300.567 41.3521 300.596 41.9097 300.612 42.4713C300.815 42.6342 300.91 42.8702 301.046 43.0819C301.588 43.9203 302.419 44.3599 303.345 44.657C303.465 44.6936 303.593 44.714 303.721 44.7221C304.039 44.7465 304.357 44.7628 304.676 44.7709C305.697 44.8035 306.709 44.7384 307.697 44.4413C308.272 44.4006 308.776 43.9936 309.351 44.0546C309.847 44.1075 310.326 44.3192 310.818 44.4494C311.562 44.6488 312.323 44.6977 313.087 44.5796C313.211 44.5593 313.339 44.5349 313.463 44.5186C314.856 44.3273 316.245 44.2378 317.642 44.4616C317.899 44.5023 318.147 44.4087 318.341 44.2256C318.659 43.9203 318.973 43.611 319.283 43.2935C319.469 43.1022 319.54 42.8539 319.535 42.6016C319.519 41.8527 319.478 41.0997 319.445 40.3508C319.436 40.1514 319.321 40.0008 319.048 39.7525C318.907 39.6264 318.787 39.4839 318.655 39.3496C318.254 39.2723 317.932 39.0362 317.605 38.8205C317.56 38.792 317.535 38.7309 317.502 38.6862C317.378 38.678 317.246 38.6903 317.126 38.6577C316.039 38.328 314.96 37.9861 313.873 37.6524C313.025 37.3919 312.943 37.4163 312.918 36.5372C312.885 35.2307 312.856 33.9242 312.823 32.6177C312.819 32.3653 312.839 32.1211 312.914 31.881C312.881 31.6979 312.827 31.5106 312.819 31.3275C312.773 30.4483 312.732 29.5651 312.707 28.686C312.674 27.4283 312.67 26.1666 312.856 24.9171C312.885 24.7299 312.926 24.5508 313.062 24.4002C314.013 23.3705 314.761 22.1983 315.452 20.9895C315.795 20.3871 316.109 19.7685 316.46 19.1661C316.584 18.9544 316.774 18.7754 316.935 18.5841C316.989 18.3399 317.093 18.1119 317.246 17.9125C317.506 17.5665 317.754 17.2002 318.056 16.8868C318.672 16.2478 319.126 15.5234 319.44 14.7053C319.482 14.5995 319.602 14.5262 319.684 14.4367C319.713 14.1884 319.796 13.9523 319.936 13.7488C320.383 13.0813 320.829 12.4098 321.296 11.7545C321.871 10.9445 322.478 10.159 323.218 9.48745C323.347 9.52815 323.462 9.49966 323.528 9.38162C323.615 9.22696 323.685 9.06416 323.764 8.90543C323.694 8.75076 323.623 8.5961 323.557 8.44551C323.561 8.27049 323.557 8.09548 323.57 7.92047C323.59 7.54602 323.772 7.25704 324.078 7.0454C324.272 6.91109 324.475 6.79305 324.677 6.67095C325.008 6.77677 325.302 6.67095 325.579 6.50408C325.628 6.47559 325.649 6.39826 325.682 6.34535C325.926 6.30058 326.166 6.24766 326.409 6.2151C327.48 6.08486 328.427 5.66971 329.29 5.05106C329.497 4.90454 329.654 4.72546 329.741 4.48939C329.824 4.26147 329.873 4.02133 330.088 3.86667C330.076 3.69573 330.059 3.52071 330.059 3.34977C330.051 2.88171 329.981 2.42586 329.795 1.99036L329.791 1.97408Z" fill="white"/>
<path d="M259.118 24.5385C259.146 23.9117 259.204 23.2849 259.254 22.6622C259.287 22.2715 259.469 21.9459 259.709 21.6447C259.87 21.4453 260.052 21.2865 260.329 21.2499C260.519 21.2255 260.705 21.1848 260.887 21.1278C261.263 21.0098 261.569 20.7818 261.788 20.4644C261.966 20.208 262.118 19.9271 262.284 19.6626C262.35 19.5567 262.462 19.4876 262.598 19.4794C263.044 19.455 263.487 19.4387 263.933 19.4265C265.781 19.3777 267.628 19.3288 269.476 19.2963C269.98 19.2881 270.303 19.0398 270.559 18.6491C270.84 18.2258 271.034 17.7618 271.212 17.2938C271.485 17.074 271.539 16.7525 271.365 16.3699C271.369 16.3088 271.373 16.2437 271.386 16.1827C271.551 15.1448 271.129 14.3593 270.299 13.7569C270.146 13.647 269.997 13.5249 269.827 13.4476C268.786 12.9714 267.703 12.6458 266.55 12.5684C266.169 12.544 265.793 12.5196 265.417 12.4707C265.231 12.4463 265.062 12.369 264.954 12.1899C264.813 11.9457 264.842 11.5224 265.028 11.3148C265.111 11.2212 265.19 11.1235 265.289 11.0462C265.438 10.9282 265.586 10.802 265.756 10.7288C267.017 10.1712 267.099 9.98393 267.686 8.80767C268.05 8.0832 268.492 7.39536 268.786 6.63425C268.844 6.6139 268.922 6.60983 268.955 6.56913C269.24 6.19469 269.269 5.80396 268.997 5.40916C269.013 5.04285 268.852 4.67655 268.968 4.30617C268.926 4.2614 268.868 4.2207 268.844 4.16372C268.616 3.67531 268.232 3.37819 267.715 3.23981C267.422 3.01189 267.12 2.97525 266.777 3.12992C266.715 3.12178 266.649 3.11364 266.587 3.10957C265.992 3.04852 265.454 3.17469 264.999 3.5817C264.623 3.91951 264.206 4.20035 263.726 4.39164C263.549 4.46083 263.441 4.62364 263.342 4.79051C262.958 5.43765 262.705 6.15398 262.242 6.76043C261.635 8.2053 260.849 9.56471 260.267 11.0218C260.196 11.1968 260.13 11.3718 259.986 11.5021C260.031 11.8969 259.882 12.2387 259.696 12.5725C259.568 12.8004 259.39 12.9673 259.138 13.0528C259.018 13.0935 258.903 13.1586 258.783 13.183C258.601 13.2237 258.419 13.2603 258.229 13.1708C257.94 13.0365 257.625 12.9795 257.307 12.9347C256.294 12.8004 255.282 12.7149 254.261 12.719C251.52 12.7272 248.784 12.719 246.043 12.719C245.663 12.719 245.279 12.7556 244.903 12.6498C244.568 12.9266 244.233 13.1871 243.989 13.5697C243.658 14.0947 243.311 14.6157 243.026 15.1651C242.766 15.6617 242.575 16.1867 242.518 16.7484C242.658 17.0984 242.823 17.424 243.117 17.6845C243.675 18.1892 244.328 18.5881 244.812 19.1742C244.936 19.3207 245.13 19.3695 245.324 19.3695C246.147 19.3777 246.969 19.3695 247.796 19.3858C248.49 19.398 249.189 19.3532 249.875 19.512C249.995 19.4876 250.115 19.4387 250.235 19.4387C251.276 19.4387 252.314 19.4387 253.356 19.4509C253.475 19.4509 253.595 19.4998 253.715 19.5242C254.348 19.3655 254.992 19.3532 255.641 19.3817C255.699 19.3736 255.761 19.3573 255.819 19.3532C256.104 19.337 256.245 19.516 256.166 19.7725C256.092 20.0085 255.976 20.208 255.774 20.3504C255.588 21.079 255.228 21.7342 254.897 22.3977C254.29 23.6228 253.612 24.8071 252.95 26.0037C252.806 26.2642 252.475 26.4108 252.144 26.3456C251.896 26.2968 251.657 26.2276 251.413 26.1706C250.388 26.2602 249.338 26.2602 248.342 26.1666C247.858 26.3294 247.362 26.4067 246.849 26.3294C246.486 26.5898 246.076 26.6061 245.651 26.5695C245.324 26.8503 244.944 27.0009 244.506 26.9806C244.254 27.3469 243.815 27.4975 243.518 27.8109C243.262 28.0795 243.034 28.3563 242.894 28.7185C242.666 29.3086 242.567 29.9029 242.671 30.5256C242.699 30.7047 242.704 30.8919 242.716 31.0751C242.757 31.1198 242.828 31.1605 242.84 31.2134C243.005 31.8891 243.419 32.4548 243.716 33.0735C244.634 33.1467 245.552 33.22 246.469 33.2933C246.713 33.3136 246.957 33.338 247.188 33.4316C247.746 33.3299 248.296 33.3991 248.846 33.4927C248.908 33.5904 248.982 33.684 249.032 33.7898C249.053 33.8346 249.032 33.9078 249.011 33.9648C248.813 34.5387 248.548 35.0841 248.197 35.5806C248.164 35.6295 248.102 35.6539 248.052 35.6905C248.052 36.0121 247.883 36.2848 247.792 36.5819C247.552 36.8179 247.42 37.1151 247.292 37.4122C247.271 37.4569 247.3 37.5221 247.304 37.575C247.139 37.8802 246.961 38.1773 246.812 38.4867C246.709 38.6983 246.593 38.8937 246.424 39.0565C246.449 39.1867 246.473 39.317 246.498 39.4472C246.32 39.7036 246.32 39.899 246.486 40.1758C246.457 40.9572 246.585 41.7142 246.816 42.455C246.754 42.5893 246.767 42.7155 246.891 42.7725C247.238 42.9271 247.593 42.9556 247.941 42.7562C248.003 42.7562 248.069 42.7725 248.131 42.7643C249.032 42.6626 249.871 42.4387 250.549 41.7753C250.909 41.4253 251.351 41.1526 251.756 40.8514C252.016 40.6601 252.227 40.4281 252.388 40.1513C252.583 39.8257 252.777 39.5001 252.942 39.1623C253.719 37.579 254.488 35.9917 255.257 34.4085C255.505 33.8997 255.728 33.3787 256.092 32.931C256.175 32.8293 256.27 32.7601 256.406 32.7357C257.043 32.638 257.683 32.6095 258.307 32.7479C259.308 32.9676 260.333 33.0043 261.341 33.163C261.908 33.2526 262.486 33.281 263.057 33.2851C264.909 33.3014 266.76 33.2892 268.612 33.2933C268.815 33.2933 268.997 33.2403 269.141 33.1182C269.769 32.5851 270.385 32.0437 271.01 31.5024C271.204 31.478 271.349 31.364 271.386 31.185C271.435 30.957 271.464 30.7169 271.448 30.4849C271.419 30.0738 271.353 29.6628 271.303 29.2517C271.212 29.2232 271.117 29.2069 271.022 29.1947C270.728 28.3563 270.204 27.6481 269.712 26.9195C269.6 26.7526 269.426 26.6509 269.236 26.6509C268.348 26.659 267.459 26.6916 266.57 26.6997C266.384 26.6997 266.194 26.6509 266.008 26.6265C265.892 26.6753 265.785 26.7526 265.665 26.7649C264.516 26.8829 260.56 26.9521 259.113 26.891C258.878 26.9561 258.741 26.8992 258.721 26.7201C258.708 26.598 258.746 26.4881 258.836 26.3945C259.006 25.788 259.097 25.1694 259.126 24.5385H259.118Z" fill="white"/>
<path d="M456.506 5.01419C456.225 4.64382 456.055 4.22867 455.948 3.7891C456.059 4.2246 456.229 4.63975 456.506 5.01419C456.626 4.85139 456.613 4.66417 456.555 4.49322C456.403 4.0333 456.237 3.57746 456.064 3.12161C456.047 3.07277 455.973 3.04428 455.923 3.00357C455.754 2.37678 455.398 1.86802 454.914 1.4366C454.72 1.26565 454.501 1.13948 454.253 1.07843C454.009 1.01331 453.757 0.960397 453.505 0.944116C452.616 0.891205 451.723 0.842364 450.835 0.817944C449.053 0.765033 447.268 0.732472 445.49 0.61037C443.705 0.484198 441.927 0.659211 440.158 0.887135C439.67 1.09064 439.178 1.03773 438.662 0.972607C437.905 0.870855 437.136 0.870855 436.376 0.813874C435.739 0.769103 435.103 0.732472 434.474 0.647001C433.462 0.508618 432.445 0.455707 431.428 0.451637C430.089 0.447567 428.754 0.451637 427.415 0.455707C426.968 0.455707 426.522 0.480128 426.079 0.492338C425.439 0.512688 424.819 0.647001 424.199 0.809804C423.947 0.874925 423.732 1.00517 423.529 1.15983C423.38 1.27379 423.231 1.39182 423.079 1.50986C422.872 1.66859 422.723 1.85988 422.665 2.12037C422.57 2.54773 422.471 2.97508 422.376 3.40651C422.128 3.67514 422.099 3.96004 422.293 4.26123C422.281 5.80786 422.268 7.35449 422.26 8.90112C422.26 9.02322 422.268 9.14939 422.273 9.27149C422.273 9.33254 422.281 9.39359 422.289 9.45465C422.318 9.84537 422.475 10.1425 422.835 10.3623C423.595 10.8222 424.43 11.0705 425.282 11.2902C425.294 11.4246 425.364 11.5141 425.505 11.5182C425.674 11.5263 425.848 11.5263 426.022 11.51C426.158 11.4978 426.228 11.4083 426.232 11.2699C426.701 11.1017 427.111 10.8819 427.464 10.6105C427.77 9.70699 428.063 8.79936 428.092 7.83475C428.092 7.77777 428.125 7.72079 428.142 7.66381C428.059 7.42368 428.03 7.1754 428.092 6.92713C428.121 6.8091 428.154 6.66664 428.241 6.58931C428.808 6.08869 429.37 5.57993 429.994 5.14443C430.155 5.03047 430.337 4.95314 430.519 4.95314C432.358 4.98163 434.202 5.01012 436.041 5.12815C436.239 5.14036 436.392 5.25026 436.545 5.36422C436.545 5.74274 436.69 6.07241 436.872 6.39395C436.934 6.49977 437.037 6.56082 437.165 6.58931C437.248 7.06958 437.339 7.54578 437.409 8.02605C437.426 8.14001 437.389 8.26618 437.376 8.38422C437.48 8.53888 437.566 8.69761 437.583 8.88483C437.653 9.73955 437.732 10.5902 437.798 11.4449C437.806 11.5629 437.752 11.685 437.732 11.8031C437.765 11.856 437.814 11.9089 437.827 11.9659C438.013 12.8532 437.971 13.7119 437.488 14.5138C437.455 14.5667 437.426 14.6236 437.405 14.6806C437.339 14.8597 437.298 15.0469 437.372 15.2301C437.554 15.6981 437.761 16.1621 437.926 16.6383C438.079 17.0779 438.025 17.5053 437.707 17.8756C437.769 18.2664 437.703 18.6408 437.537 19.003C437.546 19.1903 437.587 19.3856 437.554 19.5647C437.298 20.9363 437.256 22.3202 437.256 23.7081C437.256 26.8583 437.269 30.0085 437.273 33.1588C437.273 33.2849 437.277 33.4111 437.277 33.5373C437.285 35.4055 437.405 34.9333 436.442 36.7526C436.264 37.0864 436.07 37.412 435.88 37.7376C435.574 37.7213 435.285 37.7824 434.999 37.8801C434.946 37.8963 434.909 37.9574 434.867 37.9981C434.565 38.0795 434.264 38.1731 433.958 38.2464C432.904 38.4946 431.953 38.9505 431.106 39.618C431.056 39.6546 431.015 39.7034 430.969 39.7442C430.771 39.9151 430.663 40.1349 430.639 40.3872C430.564 41.071 430.597 41.7466 430.738 42.4223C430.829 42.8578 431.044 43.2363 431.329 43.57C431.49 43.7532 431.693 43.92 431.903 44.0381C432.284 44.2497 432.685 44.4288 433.09 44.6038C433.197 44.6527 433.338 44.6323 433.462 44.6445C433.569 44.6893 433.677 44.7666 433.788 44.7748C434.264 44.8236 434.743 44.8317 435.21 44.7219C435.264 44.7096 435.314 44.6608 435.363 44.6323C435.272 44.5794 435.185 44.5021 435.09 44.4695C435.185 44.5061 435.272 44.5794 435.363 44.6323C436.111 44.5061 436.843 44.3311 437.566 44.1032C437.81 44.0259 438.075 44.0259 438.306 44.1358C438.827 44.3881 439.41 44.4044 439.947 44.5916C440.121 44.6527 440.319 44.6527 440.509 44.6567C441.27 44.673 442.03 44.6934 442.779 44.5509C444.031 44.3148 445.288 44.2619 446.552 44.4654C446.751 44.498 446.929 44.3881 447.065 44.266C447.396 43.977 447.706 43.6636 448.032 43.3706C448.123 43.2892 448.247 43.2444 448.355 43.1834C448.301 42.2717 448.251 41.36 448.198 40.4483C448.198 40.3872 448.181 40.3262 448.165 40.2692C448.119 40.0901 448.036 39.9436 447.908 39.7971C447.623 39.4674 447.144 39.386 446.904 39.0075C446.842 39.0034 446.772 39.0115 446.714 38.9912C446.127 38.7511 445.548 38.4946 444.961 38.2586C444.374 38.0225 443.775 37.8109 443.184 37.587C443.064 37.5422 442.936 37.5015 442.845 37.4201C442.754 37.3428 442.667 37.2248 442.646 37.1149C442.593 36.8056 442.56 36.4922 442.543 36.1828C442.436 34.1804 442.345 32.1779 442.229 30.1754C442.192 29.5527 442.101 28.93 442.043 28.3072C442.026 28.12 442.043 27.9328 442.039 27.7456C441.989 27.6275 441.944 27.5095 441.894 27.3915C442.039 27.2572 441.989 27.0618 442.055 26.899C442.002 26.7199 441.944 26.5368 441.898 26.3577C441.865 26.2356 441.799 26.1338 441.687 26.0565C441.609 25.6454 441.712 25.2506 441.787 24.8517C441.828 24.807 441.886 24.7663 441.902 24.7134C442.01 24.3593 441.997 23.997 441.911 23.6389C441.882 23.5127 441.791 23.4313 441.658 23.4028C441.555 22.5929 441.472 21.7788 441.348 20.9689C441.204 20.0328 441.158 19.0926 441.129 18.1483C441.063 15.7592 441.059 13.3701 441.1 10.9809C441.109 10.4152 441.138 9.84944 441.158 9.2837C441.187 8.5226 441.377 7.78998 441.584 7.06551C441.704 6.64222 441.902 6.24336 442.163 5.88112C442.58 5.30317 443.097 4.8636 443.779 4.60718C444.32 4.39961 444.87 4.27344 445.453 4.24088C446.924 4.16762 448.388 4.21646 449.851 4.36298C450.025 4.37926 450.231 4.53799 450.268 4.69266C450.405 5.30317 450.715 5.87705 450.69 6.52012C450.434 6.86201 450.545 7.23238 450.934 7.34228C451.095 8.01384 451.285 8.68133 451.542 9.3244C451.86 10.114 452.372 10.7326 453.199 11.0542C453.257 11.0786 453.315 11.103 453.377 11.1274C453.389 11.3879 453.534 11.5304 453.79 11.5548C454.018 11.5752 454.137 11.4612 454.237 11.1722C454.542 11.099 454.852 11.046 455.15 10.9484C455.324 10.8914 455.497 10.7896 455.625 10.6635C456.03 10.2605 456.332 9.77211 456.456 9.23079C456.659 8.32723 456.824 7.40333 456.733 6.47128C456.684 5.9788 456.593 5.49446 456.518 5.00198L456.506 5.01419Z" fill="white"/>
<path d="M141.551 40.5377C141.489 40.2935 141.431 40.0533 141.369 39.8091C141.261 39.7481 141.133 39.7033 141.051 39.6178C140.178 38.7509 139.141 38.1974 137.922 37.9776C137.814 37.9206 137.715 37.827 137.603 37.8067C137.297 37.7537 136.983 37.7293 136.673 37.6968C136.285 37.1921 136 36.6263 135.698 36.0728C135.441 35.6129 135.379 35.1204 135.466 34.6076C135.52 34.2982 135.553 33.9808 135.628 33.6755C135.78 33.0487 135.756 32.4301 135.574 31.8155C135.483 31.5143 135.388 31.2131 135.326 30.9038C135.268 30.5945 135.255 30.2811 135.222 29.9677C135.483 29.6624 135.437 29.3287 135.107 29.1292C134.937 28.5228 134.904 27.896 134.892 27.2733C134.875 26.3372 134.892 25.4011 134.896 24.4649C134.9 23.8382 134.995 23.2195 135.119 22.609C135.152 22.5602 135.202 22.5113 135.218 22.4584C135.396 21.8723 135.396 21.2781 135.26 20.6838C135.247 20.6269 135.202 20.578 135.169 20.5292C135.206 20.0896 135.169 19.6582 135.069 19.2308C134.941 18.6814 134.883 18.1278 134.85 17.5662C134.793 16.5079 134.714 15.4538 134.586 14.4037C134.441 13.2275 134.466 12.039 134.557 10.8587C134.623 10.0528 134.755 9.251 134.871 8.4492C134.921 8.10731 135.152 7.91195 135.462 7.78578C135.975 7.93637 136.446 7.85904 136.868 7.53343C137.488 7.37063 138.128 7.35842 138.761 7.28109C138.955 7.25667 139.141 7.17527 139.265 7.03688C139.645 6.6136 140.021 6.18624 140.327 5.70597C140.778 5.00185 141.075 4.24888 141.104 3.41045C141.125 2.73481 140.865 2.18535 140.257 1.83126C140.092 1.73765 139.922 1.6481 139.749 1.57484C138.62 1.09864 137.442 0.846299 136.219 0.854439C134.115 0.862579 132.011 0.89107 129.903 0.93177C128.878 0.952121 127.877 1.1719 126.877 1.35099C126.443 1.42832 126.021 1.59926 125.612 1.77428C125.323 1.89638 125.05 2.07139 124.798 2.25862C124.434 2.52724 124.182 2.88134 124.05 3.3209C123.806 4.13492 123.897 4.93672 124.128 5.73446C124.161 5.85249 124.232 5.96238 124.298 6.0682C124.723 6.75605 125.368 7.13863 126.149 7.27702C126.583 7.35435 127.038 7.32586 127.485 7.36249C128.067 7.40726 128.609 7.60262 129.097 7.90788C129.721 8.29861 130.101 8.88063 130.167 9.60917C130.262 10.6755 130.262 11.7419 129.994 12.792C129.944 12.8286 129.87 12.853 129.853 12.9019C129.741 13.1868 129.733 13.4839 129.82 13.7769C129.832 13.8258 129.903 13.8583 129.948 13.899C129.965 14.0252 129.973 14.1514 130.002 14.2735C130.428 15.9707 130.324 17.6394 129.75 19.2878C129.729 19.3489 129.717 19.4099 129.688 19.4669C129.419 19.996 129.386 20.5617 129.477 21.1275C129.56 21.6322 129.551 22.1247 129.469 22.6253C129.398 23.0608 129.369 23.5003 129.287 23.9318C129.159 24.6155 129.097 25.3034 129.068 25.9953C129.055 26.3087 129.006 26.618 128.977 26.9314C129.076 27.2041 129.101 27.4768 128.968 27.7495C129.043 28.2176 129.026 28.6856 128.919 29.1455C128.778 29.1618 128.692 29.231 128.65 29.3572C128.559 29.6502 128.547 29.9473 128.638 30.2404C128.675 30.3666 128.766 30.4357 128.906 30.452C129.002 31.8969 128.989 33.3377 128.803 34.7785C128.762 34.8192 128.7 34.8518 128.683 34.9006C128.518 35.4053 128.51 35.91 128.679 36.4147C128.534 37.0985 128.332 37.7619 127.96 38.3643C127.609 38.5026 127.266 38.6776 126.869 38.5759C126.633 38.6166 126.393 38.6614 126.158 38.698C126.034 38.7183 125.939 38.7794 125.873 38.8934C125.405 38.9503 124.951 39.1091 124.475 39.0724C124.298 39.3411 124.021 39.4347 123.719 39.4795C123.38 40.2324 123.372 40.2324 123.351 40.8266C123.339 41.1197 123.364 41.4168 123.372 41.7139C123.339 41.7628 123.289 41.8075 123.277 41.8564C123.235 42.0273 123.211 42.2023 123.182 42.3733C123.223 42.5483 123.248 42.7314 123.306 42.8983C123.364 43.0774 123.504 43.1873 123.69 43.2402C123.955 43.6798 124.343 43.9972 124.752 44.2943C124.847 44.3635 124.988 44.3961 125.112 44.4002C125.364 44.4083 125.62 44.392 125.873 44.3798C126.889 44.3269 127.902 44.331 128.915 44.4938C129.167 44.5345 129.419 44.5589 129.671 44.5915C130.829 44.7298 131.957 44.6322 133.028 44.16C133.482 43.9606 133.891 44.0461 134.317 44.1885C134.532 44.4653 134.908 44.5345 135.235 44.3635C135.669 44.4531 136.095 44.5752 136.533 44.6281C137.682 44.7746 138.798 44.6037 139.881 44.2333C140.059 44.1722 140.216 44.0624 140.381 43.9728C140.6 43.8507 140.815 43.7245 141.034 43.5984C141.051 43.5373 141.059 43.4722 141.088 43.4193C141.311 42.9756 141.65 42.5808 141.633 42.0395C141.621 41.5389 141.675 41.0342 141.547 40.5417L141.551 40.5377Z" fill="white"/>
<path d="M117.502 23.6798C117.196 22.9146 116.816 22.1902 116.274 21.5634C116.196 21.4698 116.08 21.3762 115.964 21.3558C115.088 21.193 114.224 20.9651 113.327 20.8918C112.753 20.843 112.182 20.7941 111.612 20.7087C110.723 20.5743 109.834 20.5214 108.937 20.5133C108.045 20.5052 107.148 20.4929 106.255 20.5052C105.044 20.5214 103.828 20.5174 102.638 20.8063C102.452 20.8511 102.258 20.8552 102.068 20.8633C101.295 20.8959 100.563 21.1238 99.8231 21.3232C99.6908 21.3599 99.6082 21.4453 99.5379 21.5593C99.1617 22.1495 98.8848 22.7803 98.6823 23.4437C98.5624 23.4885 98.4715 23.5658 98.4301 23.6757C98.2813 24.0746 98.2648 24.4816 98.3474 24.8927C98.3598 24.9456 98.4094 24.9944 98.4425 25.0433C98.459 25.2305 98.4549 25.4218 98.5004 25.6009C98.612 26.0364 98.8476 26.3946 99.2403 26.651C99.9347 27.1027 100.679 27.4446 101.452 27.7255C101.811 27.8557 102.187 27.9086 102.576 27.8598C103.142 27.7865 103.709 27.7051 104.275 27.6563C104.589 27.6319 104.907 27.6522 105.221 27.6929C105.399 27.7173 105.577 27.7947 105.688 27.9737C105.825 28.1854 105.978 28.3889 106.032 28.6372C106.135 29.1256 106.251 29.614 106.304 30.1105C106.383 30.7943 106.399 31.4781 106.222 32.1578C106.143 32.459 106.122 32.7764 106.052 33.0776C105.788 34.1725 105.449 35.2429 104.87 36.2279C104.705 36.5046 104.482 36.7163 104.205 36.8831C103.841 36.9645 103.473 37.0378 103.109 37.1273C102.989 37.1558 102.923 37.2739 102.89 37.4041C102.663 37.5059 102.419 37.5913 102.208 37.7175C101.121 38.3565 99.9678 38.8368 98.7649 39.2194C98.397 39.3374 98.0333 39.4066 97.653 39.4066C97.0247 39.4107 96.3923 39.4066 95.764 39.3984C95.2598 39.3903 94.7596 39.3252 94.2677 39.1949C94.0776 38.9182 93.7221 38.8571 93.379 39.0444C92.3291 38.91 91.3412 38.56 90.3575 38.1937C90.312 38.0268 90.2211 37.8885 90.0723 37.7948C89.7746 37.6117 89.4564 37.5099 89.0968 37.5873C88.9893 37.5344 88.8818 37.5303 88.7702 37.5751C88.3527 37.1518 87.8691 36.8262 87.2904 36.6471C87.2615 36.5901 87.2491 36.5209 87.2078 36.4802C86.6704 35.9592 86.1331 35.4383 85.5874 34.9214C85.5461 34.8807 85.4717 34.8685 85.4138 34.844C85.3436 34.6731 85.3105 34.4737 85.203 34.3312C84.1283 32.9148 83.3843 31.3519 82.8676 29.6628C82.632 28.8854 82.5039 28.0836 82.2393 27.3185C82.3757 27.0417 82.3592 26.8463 82.1856 26.5736C82.2311 25.7556 82.1525 24.9415 82.0616 24.1316C81.9789 23.3786 81.9624 22.6297 81.9624 21.8768C81.9624 20.2406 82.1484 18.6207 82.2641 16.9927C82.2765 16.8055 82.3096 16.6182 82.3509 16.4351C82.7602 14.5221 83.4008 12.6906 84.3805 10.9812C85.0708 9.77236 85.8561 8.62867 86.8688 7.65999C87.9807 6.5977 89.2249 5.73891 90.7543 5.3604C91.3206 5.22201 91.8207 4.96153 92.2754 4.59929C92.8334 4.15972 93.4782 3.89924 94.185 3.78528C94.5612 3.72423 94.9497 3.73644 95.2969 3.54514C95.8508 3.70795 96.4171 3.70388 96.9834 3.67945C97.0454 3.67945 97.1074 3.65096 97.1653 3.63468C97.219 3.66317 97.2727 3.69981 97.3306 3.71202C97.93 3.83412 98.5293 3.89924 99.1369 3.78528C99.7611 3.96436 100.402 3.93587 101.038 3.92366C101.572 3.91552 102.043 4.07425 102.497 4.31032C102.725 4.42835 102.936 4.56266 103.159 4.6929C103.605 4.94932 103.985 5.27085 104.304 5.67379C105.172 6.7605 105.998 7.8757 106.825 8.9909C106.982 9.20255 107.048 9.43454 107.065 9.69096C107.098 10.3177 107.115 10.9486 107.309 11.5551C107.52 12.2144 107.747 12.8656 107.974 13.5209C108.036 13.6959 108.119 13.8709 108.214 14.0297C108.346 14.2494 108.524 14.4204 108.78 14.5018C109.144 14.6198 109.504 14.746 109.892 14.7786C109.975 14.8762 110.078 14.9291 110.202 14.9291C110.38 14.9291 110.562 14.9251 110.74 14.9169C110.864 14.9169 110.967 14.8559 111.041 14.7541C111.546 14.6727 112.05 14.5913 112.554 14.514C112.835 14.4692 112.992 14.2779 113.104 14.0459C113.187 13.875 113.269 13.7 113.302 13.5209C113.662 11.7341 113.716 11.2172 113.67 9.58921C113.625 7.90012 113.1 6.37792 111.992 5.07549C111.372 4.35102 110.682 3.70388 109.743 3.37013C109.446 3.26431 109.165 3.11371 108.859 3.02417C108.681 2.97126 108.503 2.87765 108.35 2.77183C108.144 2.62937 107.958 2.45436 107.763 2.29156C107.119 1.75431 106.366 1.42463 105.564 1.20892C104.891 1.02576 104.234 0.76935 103.518 0.76935C103.328 0.76935 103.138 0.736789 102.948 0.704228C101.749 0.484444 100.538 0.451884 99.3229 0.476304C99.1328 0.476304 98.9468 0.529215 98.7567 0.557706C98.116 0.427463 97.4753 0.419323 96.8387 0.573986C96.3055 0.472234 95.7723 0.451884 95.2474 0.626897C95.1233 0.610617 94.9952 0.565846 94.8753 0.582126C94.0073 0.708298 93.131 0.757139 92.2589 0.842611C90.9444 0.968783 89.6713 1.28625 88.4437 1.75838C88.2783 1.8235 88.1502 1.98223 88.0055 2.09619C87.8939 2.1369 87.7658 2.15725 87.6707 2.22237C86.8771 2.78404 86.1537 3.42711 85.4593 4.09867C85.418 4.1353 85.4138 4.20856 85.389 4.26555C85.1452 4.31439 85.0005 4.46498 84.9509 4.70511C84.6574 4.82315 84.3639 4.93304 84.0787 5.05921C83.6736 5.24236 83.3264 5.50285 83.0288 5.84067C81.6028 7.44835 80.4123 9.21883 79.3335 11.0585C78.9202 11.7626 78.5936 12.5075 78.3125 13.2726C78.2712 13.3866 78.2712 13.5168 78.2505 13.6389C78.1803 13.7407 78.0811 13.8343 78.0397 13.9442C77.2957 15.906 76.841 17.9288 76.8286 20.0249C76.8121 22.8577 76.8741 25.6904 77.1593 28.5151C77.3825 30.7333 77.986 32.8375 78.8995 34.8644C79.5485 36.3093 80.4082 37.632 81.3176 38.9263C81.3506 38.9752 81.4209 38.9996 81.4746 39.0321C81.4746 39.3618 81.6276 39.602 81.9004 39.777C82.0905 40.4607 82.5287 40.9898 83.066 41.4294C83.5951 41.869 84.1655 42.2638 84.7938 42.5609C84.8476 42.5853 84.9178 42.5731 84.9798 42.5772C85.1328 42.6871 85.2774 42.8132 85.4428 42.9069C86.4968 43.5052 87.5922 44.0139 88.7206 44.4535C88.8198 44.8646 89.1712 44.9867 89.5432 44.7384C89.6672 44.7587 89.7953 44.7669 89.911 44.8035C90.2707 44.9053 90.6179 45.0192 91.0064 45.0111C91.7546 44.9989 92.5069 45.0152 93.2592 45.064C94.0734 45.1169 94.8836 45.178 95.6979 45.1169C96.1443 45.0843 96.5701 45.1698 96.9917 45.2919C97.1074 45.3286 97.2397 45.3163 97.3637 45.3286C97.4753 45.3815 97.5828 45.4629 97.6985 45.4791C98.4425 45.5687 99.1948 45.5646 99.943 45.528C100.059 45.5239 100.174 45.4507 100.29 45.4059C101.555 45.1495 102.084 44.9907 102.985 44.6081C104.027 44.1686 105.006 43.6069 105.994 43.0656C106.399 43.029 106.8 43.033 107.172 43.2284C107.284 43.4522 107.404 43.6761 107.511 43.904C107.623 44.1279 107.714 44.3639 107.834 44.5837C107.958 44.8076 108.148 44.9622 108.383 45.0843C108.9 45.353 109.462 45.4629 110.024 45.585C110.682 45.7274 111.289 45.5931 111.872 45.296C112.099 45.182 112.323 45.0681 112.55 44.95C112.707 44.6122 112.868 44.2785 113.013 43.9366C113.182 43.5377 113.34 43.1307 113.501 42.7237C113.455 42.4795 113.48 42.2353 113.538 41.9952C113.654 41.5149 113.716 41.0265 113.67 40.534C113.881 40.0334 113.881 39.5368 113.67 39.0362C113.662 38.7228 113.687 38.4053 113.645 38.096C113.468 36.7855 113.389 35.4668 113.323 34.148C113.298 33.6474 113.269 33.1427 113.203 32.6421C113.013 31.1932 113.112 29.7564 113.368 28.3238C113.406 28.1203 113.666 27.8801 113.898 27.8516C114.34 27.7947 114.786 27.7499 115.229 27.697C115.609 27.6522 115.989 27.6115 116.365 27.5382C116.551 27.5016 116.704 27.3754 116.832 27.2289C117.039 26.9847 117.146 26.6835 117.308 26.4149C117.539 26.0201 117.634 25.5968 117.655 25.1532C117.671 24.8398 117.647 24.5264 117.622 24.213C117.605 24.0258 117.576 23.8345 117.506 23.6595L117.502 23.6798Z" fill="white"/>
<path d="M500.001 42.1211C499.977 41.8932 499.948 41.6694 499.935 41.4414C499.923 41.2705 499.902 41.1036 499.799 40.9571C499.786 40.8391 499.799 40.7048 499.753 40.5989C499.534 40.0902 499.237 39.6303 498.811 39.2517C498.629 39.093 498.406 38.9668 498.315 38.7226C498.253 38.7063 498.183 38.7023 498.133 38.6738C497.6 38.3482 497.063 38.0307 496.546 37.6807C496.401 37.583 496.298 37.3958 496.228 37.233C496.157 37.0661 496.132 36.8707 496.124 36.6876C496.095 36.2521 496.083 35.8166 496.075 35.3811C496.042 33.8263 496.017 32.2716 495.984 30.7168C495.98 30.4685 495.984 30.2202 496.054 29.976C495.942 29.683 495.942 29.3737 495.926 29.0643C495.884 28.1404 495.831 27.2165 495.818 26.2926C495.802 25.1204 495.645 23.9605 495.645 22.7883C495.756 22.7191 495.802 22.6173 495.798 22.4871C495.794 22.3691 495.798 22.2551 495.794 22.1371C495.761 22.0068 495.682 21.9417 495.566 21.9417C495.393 21.3312 495.281 20.7085 495.326 20.0735C495.368 19.5037 495.335 18.9339 495.231 18.3804C495.103 17.6925 495.091 17.0047 495.145 16.3128C495.178 15.8732 495.202 15.4336 495.231 14.9941C495.264 14.5545 495.314 14.1149 495.463 13.6957C495.723 12.9672 495.765 12.2183 495.665 11.4572C495.624 11.1438 495.595 10.8304 495.599 10.517C495.599 10.2687 495.632 10.0123 495.694 9.77217C495.794 9.40586 495.913 9.0477 496.062 8.69767C496.236 8.28659 496.471 7.91215 496.951 7.77376C497.327 7.66387 497.641 7.44409 497.939 7.20395C498.286 6.92312 498.596 6.60158 498.952 6.33296C499.406 5.99514 499.555 5.53522 499.58 5.01425C499.609 4.38746 499.625 3.7566 499.646 3.12574C499.464 2.61698 499.146 2.18148 498.877 1.72156C498.088 1.27385 497.24 1.02965 496.327 1.01744C496.265 1.01744 496.199 1.0093 496.137 1.0093C496.046 0.940105 495.963 0.830213 495.864 0.809863C495.335 0.704041 494.802 0.699971 494.268 0.818003C494.153 0.842423 494.07 0.927895 494.016 1.04186C492.689 1.07849 491.367 1.11105 490.04 1.15989C488.969 1.20059 487.899 1.25757 486.824 1.31455C486.547 1.33083 486.386 1.53434 486.229 1.7297C486.192 1.77854 486.15 1.83145 486.138 1.88843C485.993 2.42568 485.782 2.95072 485.749 3.51646C485.53 3.93975 485.53 4.24094 485.758 4.63166C485.865 5.36428 486.274 5.89339 486.915 6.25562C487.299 6.47134 487.692 6.67891 488.081 6.88649C488.473 7.09406 488.87 7.28942 489.254 7.50514C489.709 7.75748 489.817 7.92436 489.854 8.37613C489.936 9.43842 490.007 10.4966 490.135 11.5549C490.234 12.3648 490.218 13.1788 490.081 13.9888C489.924 14.9167 489.899 15.8569 489.891 16.7931C489.891 17.2285 489.854 17.6681 489.833 18.1036C489.825 18.242 489.614 18.4618 489.478 18.5025C489.11 18.6205 488.729 18.6368 488.349 18.6205C488.093 18.7955 487.82 18.8525 487.523 18.7304C487.043 18.9461 486.53 18.9461 486.018 18.9746C482.885 19.1293 479.756 19.1293 476.623 19.0316C475.345 18.9909 474.064 18.9746 472.811 18.6856C472.687 18.6571 472.559 18.6449 472.431 18.649C471.766 18.6571 471.195 18.3478 470.617 18.0914C470.451 18.0181 470.323 17.8391 470.315 17.6396C470.29 17.0739 470.265 16.5081 470.269 15.9424C470.269 15.5557 470.166 15.1976 470.021 14.8476C469.947 14.6725 469.873 14.4975 469.773 14.3388C469.666 14.1638 469.637 13.9725 469.687 13.7975C469.885 13.1178 469.848 12.4259 469.844 11.7339C469.844 10.6635 469.835 9.59309 469.844 8.52266C469.844 8.3395 469.893 8.15228 469.93 7.96913C469.959 7.83481 470.046 7.74934 470.166 7.69643C470.695 7.45223 471.257 7.36676 471.832 7.28942C472.783 7.15918 473.713 6.91091 474.576 6.48762C474.998 6.28412 475.267 5.92188 475.321 5.45382C475.407 4.70086 475.387 3.94382 475.333 3.19086C475.316 2.93037 475.184 2.71059 474.986 2.53964C474.452 2.07973 473.866 1.7297 473.167 1.53027C472.609 1.36746 472.051 1.27385 471.472 1.24943C470.708 1.22094 469.939 1.26571 469.178 1.11919C468.885 1.24536 468.579 1.21687 468.281 1.15175C468.174 1.12733 468.079 1.03372 467.979 0.972666C467.471 0.944175 466.963 0.903474 466.454 0.895334C465.69 0.879054 464.921 0.830213 464.164 0.895334C462.705 1.01744 461.564 2.12857 461.424 3.58565C461.37 4.14733 461.378 4.71307 461.391 5.27881C461.399 5.66546 461.519 6.00735 461.92 6.20678C462.375 6.43471 462.809 6.69519 463.247 6.95161C463.685 7.20802 464.119 7.46851 464.553 7.73306C464.718 7.83481 464.834 7.98541 464.908 8.16042C464.966 8.18484 465.036 8.19705 465.086 8.22961C465.69 8.6529 466.045 9.21864 466.099 9.95939C466.181 11.1519 466.198 12.3445 466.124 13.537C466.124 13.598 466.095 13.6591 466.082 13.7201C466.115 13.8341 466.169 13.9521 466.173 14.0661C466.186 14.8435 466.19 15.6209 466.181 16.3983C466.181 16.5122 466.119 16.6302 466.091 16.7442C466.202 17.1105 466.157 17.4809 466.132 17.8513C466.062 18.9014 465.966 19.9474 466.152 21.0015C466.206 21.3027 466.173 21.6202 466.152 21.9295C466.103 22.6702 466.037 23.411 465.979 24.1518C465.801 24.2372 465.681 24.3878 465.673 24.571C465.652 24.9943 465.648 25.4216 465.661 25.849C465.661 25.9629 465.747 26.0728 465.793 26.1827C465.768 28.7835 465.739 31.3802 465.714 33.981C465.714 34.2903 465.714 34.5996 465.619 34.9008C465.714 35.9183 465.718 36.887 465.603 37.5057C465.582 37.6196 465.504 37.7377 465.413 37.8191C465.227 37.9859 465.032 38.1528 464.822 38.2831C464.392 38.5476 463.958 38.8081 463.503 39.0279C463.102 39.2192 462.738 39.4674 462.374 39.7157C461.833 40.0861 461.453 40.5582 461.283 41.1932C461.238 41.3722 461.139 41.535 461.068 41.706C461.093 42.1578 461.122 42.6136 461.147 43.0654C461.201 43.098 461.263 43.1224 461.308 43.1631C461.738 43.5253 461.965 44.1114 462.503 44.3353C463.032 44.5591 463.631 44.4574 464.197 44.5225C466.409 44.7748 468.628 44.8033 470.848 44.7585C471.671 44.7423 472.497 44.6975 473.299 44.4696C473.415 44.437 473.551 44.4736 473.675 44.4777C474.134 44.2864 474.597 44.1073 475.052 43.8998C475.283 43.7939 475.449 43.5986 475.544 43.3625C475.61 43.1916 475.659 43.0125 475.717 42.8375C475.597 42.3328 475.597 41.8281 475.738 41.3234C475.713 41.1402 475.688 40.9571 475.655 40.778C475.61 40.5297 475.523 40.314 475.246 40.2163C474.779 40.0454 474.312 39.8622 473.853 39.671C473.684 39.5977 473.535 39.4837 473.374 39.386L473.2 39.4268L473.026 39.386C472.948 39.2965 472.882 39.1744 472.783 39.1256C472.452 38.9587 472.105 38.8244 471.716 38.9139C471.489 38.8081 471.257 38.7104 471.038 38.5924C470.869 38.5028 470.745 38.3645 470.679 38.1813C470.546 37.8272 470.447 37.465 470.526 37.0905C470.708 36.2399 470.778 35.377 470.827 34.5142C470.48 33.7653 470.311 32.9797 470.323 32.1576C470.323 32.0965 470.323 32.0314 470.319 31.9704C470.307 29.7278 470.294 27.4811 470.286 25.2385C470.286 25.0553 470.34 24.8722 470.369 24.6849C470.352 24.6239 470.327 24.5628 470.323 24.5018C470.315 24.3797 470.278 24.2291 470.331 24.1395C470.422 23.9849 470.555 23.8099 470.712 23.7447C471.171 23.5494 471.629 23.3296 472.15 23.3418C472.411 23.1668 472.688 23.1424 472.985 23.2197C473.167 23.1668 473.345 23.0935 473.531 23.061C474.725 22.8412 475.936 22.7923 477.143 22.7842C479.623 22.7639 482.108 22.772 484.588 22.7761C485.158 22.7761 485.733 22.8168 486.303 22.8453C486.559 22.8575 486.816 22.9063 487.039 23.0284C487.758 23.4273 488.49 23.7977 489.271 24.0785C489.37 24.1151 489.469 24.2616 489.486 24.3715C489.602 25.0512 489.734 25.7269 489.792 26.4106C489.87 27.3468 489.887 28.2869 489.924 29.2271C489.928 29.3492 489.879 29.4713 489.854 29.5934C489.994 30.2202 490.044 30.8511 489.891 31.486C489.924 31.6081 489.978 31.7262 489.986 31.8483C490.077 33.5455 490.015 35.2386 489.825 36.9277C489.812 37.0539 489.788 37.176 489.767 37.3022C489.639 38.0389 489.25 38.568 488.51 38.8284C488.329 38.8936 488.163 38.975 487.965 38.9424C487.729 39.0238 487.489 39.1011 487.258 39.1907C487.022 39.2802 486.787 39.3616 486.564 39.4756C486.026 39.7483 485.675 40.1594 485.646 40.778C485.629 41.0873 485.617 41.3967 485.633 41.706C485.662 42.1985 485.716 42.6909 485.758 43.1834C485.853 43.3422 485.944 43.505 486.047 43.6596C486.117 43.7614 486.187 43.8753 486.287 43.9323C486.506 44.0585 486.733 44.1887 486.977 44.2539C487.775 44.4736 488.572 44.6894 489.403 44.7789C491.565 45.0109 493.731 45.0923 495.897 44.8522C496.467 44.7911 497.042 44.7504 497.612 44.7016C498.059 44.6649 498.497 44.6039 498.923 44.4492C499.096 44.3882 499.299 44.3963 499.485 44.376C499.786 44.0341 499.873 43.6311 499.807 43.1916C499.882 43.1997 499.944 43.1794 499.993 43.1224C499.915 42.7886 499.91 42.4549 500.001 42.1211Z" fill="white"/>
<path d="M72.1833 40.2896C72.175 39.789 72.266 39.2884 72.2866 38.7878C72.3032 38.2872 72.2866 37.7825 72.2825 37.2778C72.2825 36.8178 72.0924 36.4149 71.8237 36.0608C71.5096 35.6457 71.0838 35.3567 70.5547 35.2956C69.7942 35.2061 69.0253 35.198 68.2607 35.2509C68.0705 35.2631 67.8845 35.3201 67.7357 35.4503C67.6406 35.5317 67.5497 35.6212 67.4588 35.7108C66.8939 36.2616 66.5122 36.9589 66.3138 37.8028C66.0203 37.9656 65.9418 38.3238 66.1278 38.6738C66.0947 39.1744 66.0741 39.6791 66.0162 40.1797C65.9872 40.4361 65.8178 40.6519 65.5739 40.7577C64.9911 41.0141 64.3917 41.2339 63.7428 41.2583C63.0401 41.2868 62.3374 41.3071 61.6388 41.2054C60.436 41.0263 59.2249 40.9571 58.0179 40.8309C57.059 40.7333 56.1083 40.717 55.1493 40.778C53.7481 40.8676 52.3427 40.953 50.9414 41.0304C50.6893 41.0426 50.433 41.0304 50.1768 41.006C50.0528 40.9937 49.9246 40.9571 49.813 40.8961C48.6639 40.2937 48.0232 39.3169 47.738 38.0959C47.6677 37.7947 47.6719 37.4691 47.6719 37.1557C47.6636 35.5805 47.5851 34.0136 47.4363 32.4466C47.2709 30.6924 47.2875 28.926 47.3164 27.1677C47.3247 26.5857 47.4817 26.0484 47.7711 25.5519C47.862 25.3931 48.0026 25.2507 48.1472 25.1327C48.3952 24.9292 48.6887 24.7867 49.0111 24.7501C50.2222 24.6198 51.3961 24.3268 52.5866 24.0867C53.901 23.8221 55.2237 23.6064 56.5754 23.6186C57.0879 23.6227 57.5963 23.5942 58.1089 23.5779C59.2621 23.5453 60.4071 23.5657 61.5438 23.7977C61.7918 23.8465 62.0522 23.8384 62.3043 23.8547C62.3539 23.8913 62.3953 23.9442 62.449 23.9564C62.7466 24.0256 63.0442 24.0134 63.3377 23.932C63.4617 23.8994 63.5402 23.814 63.5733 23.6878C63.751 23.6227 63.9371 23.5616 64.1107 23.4843C64.5033 23.3093 64.6769 22.9877 64.6769 22.5807C64.6769 21.9377 64.5364 21.3394 64.0941 20.8306C63.8875 20.5945 63.7056 20.334 63.5154 20.0776C63.3997 19.9189 63.2468 19.8131 63.0649 19.748C62.5193 19.5485 61.9695 19.4346 61.3826 19.5811C60.5145 19.7968 59.6011 19.7398 58.7454 20.0247C58.5677 20.0817 58.3693 20.0817 58.1791 20.098C57.4144 20.1631 56.6539 20.2404 55.8892 20.2893C55.3808 20.3218 54.8641 20.3625 54.3598 20.3259C52.8346 20.2119 51.3011 20.1672 49.7799 19.9515C49.6849 19.8782 49.5981 19.7683 49.4906 19.7439C49.1269 19.6543 48.7548 19.5933 48.3828 19.7073C48.0894 19.5851 47.7917 19.4753 47.5065 19.3369C47.1883 19.1863 47.0519 18.9217 47.0849 18.5758C47.0891 18.5147 47.0973 18.4496 47.1015 18.3885C47.2213 18.3275 47.304 18.242 47.3329 18.124C47.49 17.5257 47.4652 16.9233 47.3205 16.3291C47.3081 16.2762 47.2503 16.2314 47.2172 16.1826C47.1469 15.8773 47.0436 15.5761 47.0147 15.2668C46.8493 13.3905 46.7584 11.5142 46.9113 9.63381C46.9485 9.19424 47.0312 8.76689 47.1097 8.33546C47.2751 7.40748 47.5768 6.5202 47.7752 5.60037C47.8331 5.32767 48.0522 5.18115 48.296 5.10382C48.4738 5.04684 48.6722 5.05498 48.8623 5.03463C48.9491 5.12824 49.0566 5.17708 49.1806 5.18522C49.4286 5.2015 49.6601 5.16487 49.8833 5.05498C49.999 4.998 50.0651 4.90845 50.0817 4.77414C50.462 4.73344 50.8381 4.67646 51.2184 4.65204C55.0294 4.42819 58.8446 4.34271 62.6639 4.37527C62.9161 4.37527 63.1765 4.37934 63.4245 4.41598C64.0735 4.50959 64.6397 4.77414 65.0696 5.2829C65.4003 5.67363 65.6442 6.11727 65.7268 6.61789C65.8674 7.48481 66.0989 8.33546 66.1361 9.21459C66.1485 9.46694 66.2642 9.69079 66.4419 9.88616C66.8222 10.3054 67.1735 10.7531 67.653 11.0746C67.6861 11.2741 67.8142 11.3962 68.0002 11.4409C68.364 11.5305 68.7277 11.5223 69.0915 11.4246C69.2155 11.3921 69.2982 11.3066 69.3395 11.1804C70.2902 11.0909 71.0135 10.6269 71.555 9.86581C71.7038 9.65823 71.8361 9.44252 71.8898 9.19424C72.1544 7.89182 72.3073 8.04241 72.018 6.40624C71.9064 5.78759 71.7865 5.17708 71.6046 4.57064C71.3732 3.79325 71.1293 3.00773 71.0838 2.1815C71.0714 1.92509 70.9061 1.71751 70.6333 1.63204C69.8438 1.37156 69.0419 1.1884 68.2028 1.17619C67.7564 1.16805 67.31 1.12328 66.8677 1.08665C64.5075 0.887219 62.1514 0.911639 59.8119 1.26167C59.415 1.32272 59.0513 1.2983 58.6917 1.15991C57.9642 0.887219 57.2119 0.785467 56.439 0.789537C55.1617 0.797677 53.8886 0.789537 52.6114 0.813958C51.5904 0.830238 50.5736 0.895359 49.5609 1.05816C49.1847 1.11921 48.8003 1.15991 48.42 1.16805C47.2089 1.1884 45.9978 1.19247 44.7867 1.1884C44.084 1.1884 43.3855 1.12328 42.6993 0.95641C42.4554 0.895359 42.195 0.915709 41.9388 0.903499C41.5957 0.687785 41.2402 0.732556 40.8889 0.866869C40.769 0.911639 40.7194 1.03374 40.7194 1.16805C40.6285 1.24132 40.521 1.30237 40.4507 1.38784C40.1035 1.79485 39.8762 2.27104 39.715 2.77573C39.6819 2.88156 39.7026 3.00773 39.6984 3.12169C39.6571 3.22751 39.5868 3.3374 39.5827 3.44323C39.5703 3.85023 39.5703 4.25724 39.5868 4.66832C39.591 4.77821 39.6654 4.88403 39.7067 4.98986C39.6199 5.637 39.9423 6.0725 40.459 6.3981C40.9426 6.70336 41.4345 6.99233 41.9181 7.29352C42.5257 7.67611 42.9515 8.21336 43.278 8.84422C43.3937 9.07214 43.4847 9.30414 43.5053 9.55648C43.5839 10.5577 43.6541 11.563 43.65 12.5683C43.6417 14.2656 43.6169 15.9669 43.6707 17.66C43.7575 20.4887 43.712 23.3174 43.7451 26.1461C43.7534 26.6467 43.7203 27.1514 43.6872 27.652C43.6211 28.6573 43.4971 29.6586 43.4723 30.6598C43.4433 31.7384 43.1003 32.7641 43.0424 33.8345C43.0259 34.1438 42.9143 34.4491 42.844 34.7543C42.6952 35.43 42.5877 36.1137 42.3314 36.7649C42.2612 36.944 42.133 37.0865 41.9264 37.115C40.8227 37.2493 40.0456 37.8557 39.5207 38.7796C39.2107 39.325 38.9627 39.9111 38.9503 40.5583C38.7312 41.0548 38.7436 41.5513 38.9379 42.052C38.88 42.7764 39.1528 43.4073 39.529 44.0015C39.6282 44.1562 39.777 44.2986 39.9878 44.2986C41.7156 44.3068 43.4351 44.4452 45.1587 44.6039C46.56 44.7341 47.9736 44.6812 49.379 44.6243C49.9535 44.5998 50.5281 44.5551 51.0861 44.3882C51.392 44.494 51.6731 44.4615 51.9252 44.2498C52.1071 44.1969 52.3014 44.1643 52.4708 44.087C52.7643 43.9486 53.066 43.8713 53.3926 43.8957C53.7109 43.9201 54.0291 43.9364 54.3433 43.9812C55.8561 44.1969 57.3814 44.3109 58.9066 44.3841C59.6052 44.4167 60.3037 44.4818 61.0023 44.5429C62.5895 44.6772 64.1809 44.7179 65.7723 44.6487C66.1485 44.8359 66.5246 44.8359 66.9007 44.6527C67.0909 44.665 67.2852 44.6975 67.4712 44.6812C67.9134 44.6365 68.3557 44.5144 68.7939 44.5266C69.3106 44.5388 69.8107 44.437 70.3191 44.3923C70.5093 44.376 70.6994 44.3475 70.8854 44.3068C71.1375 44.2539 71.3566 44.1277 71.5633 43.973C72.0469 43.6067 72.3238 43.1346 72.3404 42.5282C72.3487 42.2758 72.3735 42.0235 72.3528 41.7752C72.3114 41.2746 72.1998 40.778 72.1916 40.2774L72.1833 40.2896Z" fill="white"/>
<path d="M33.4318 32.2591C33.5103 31.4085 33.4814 30.57 33.2541 29.7397C33.1755 29.4508 33.1714 29.1414 33.1301 28.8402C33.3243 28.4821 33.2582 28.1361 32.9647 27.9611C32.9069 27.7495 32.8449 27.5378 32.787 27.3262C32.911 27.0331 32.8821 26.8133 32.6589 26.5203C32.6299 26.4837 32.5473 26.4918 32.4894 26.4796C32.1256 25.1772 31.3775 24.1027 30.4475 23.1421C29.7034 22.3729 28.9139 21.6484 28.017 21.046C27.7566 20.871 27.4796 20.7164 27.2564 20.4884C27.1407 20.3704 27.12 20.2972 27.2399 20.171C27.368 20.0367 27.4631 19.8657 27.5995 19.7436C28.1162 19.2796 28.637 18.8197 29.1661 18.3761C29.4678 18.1237 29.6786 17.8185 29.7944 17.4562C30.0796 16.5649 30.4144 15.6858 30.6376 14.7741C30.712 14.4729 30.7823 14.1635 30.8236 13.8583C31.1501 11.3064 30.7657 8.87652 29.5546 6.58507C29.5588 6.15771 29.3604 5.86466 28.9635 5.70186L28.4551 5.05065C28.4469 4.9896 28.4551 4.9204 28.4303 4.87156C28.1658 4.44014 27.8103 4.13488 27.2936 4.02906C26.7149 3.55286 26.1114 3.10515 25.4501 2.73884C25.384 2.56383 25.2724 2.41324 25.1029 2.33591C24.8218 2.20973 24.5366 2.08763 24.2142 2.12426C23.4082 1.75389 22.6063 1.38758 21.8002 1.01313C21.5688 0.907309 21.3249 0.829978 21.0686 0.829978C20.1799 0.821838 19.2871 0.813698 18.3984 0.829978C18.0181 0.834048 17.6378 0.907309 17.2948 1.09046C16.9972 1.2492 16.683 1.26141 16.3813 1.12709C15.9721 0.94394 15.5463 0.834048 15.0958 0.809628C14.7155 0.789277 14.3352 0.728226 13.9549 0.699736C12.686 0.606124 11.417 0.536932 10.148 0.711946C9.70986 0.772997 9.25932 0.777067 8.81703 0.813698C8.43676 0.846258 8.04821 0.854398 7.68033 0.94394C6.69243 1.18 5.6632 1.2085 4.6877 1.51782C4.4521 1.59108 4.18342 1.56666 3.93128 1.59108C3.88995 1.54224 3.86101 1.47305 3.80728 1.4527C3.489 1.33874 3.19552 1.50154 3.10045 1.83936C2.72844 1.89634 2.3523 1.94111 1.98442 2.01844C1.49254 2.12019 1.00479 2.24229 0.525305 2.37661C0.339299 2.42952 0.202895 2.57197 0.182228 2.7714C0.157427 3.01561 0.161561 3.26388 0.157427 3.50809C0.128493 3.561 0.0912916 3.60984 0.0788912 3.66682C0.000355419 4.0779 -0.0327123 4.48898 0.0416901 4.90412C0.0830247 5.14426 0.198762 5.34369 0.47157 5.40067C0.612108 5.68965 0.843582 5.90536 1.07092 6.12922C1.66201 6.71938 2.36883 7.14267 3.10459 7.52525C3.33606 7.64736 3.49313 7.85493 3.49727 8.12762C3.52207 9.32423 3.5634 10.5168 3.55927 11.7134C3.551 13.5368 3.49727 15.3642 3.48487 17.1876C3.4766 18.4453 3.50553 19.7029 3.52207 20.9606C3.53033 21.5914 3.60474 22.2142 3.83208 22.8125C3.96848 23.1788 3.96435 23.5614 3.81554 23.9195C3.51793 24.6359 3.41873 25.3725 3.4642 26.1377C3.4642 26.1988 3.4642 26.2639 3.46833 26.3249C3.48487 28.4007 3.50553 30.4764 3.51793 32.5522C3.51793 33.183 3.50553 33.8098 3.489 34.4407C3.4766 34.9454 3.41873 35.446 3.26579 35.9303C2.98058 36.1582 2.93511 36.4594 3.14179 36.7769C3.12525 37.2287 2.95578 37.6397 2.76564 38.0345C2.5755 38.4375 2.29443 38.7794 1.88935 39.0073C1.44707 39.2596 1.00892 39.512 0.574907 39.7765C0.293831 39.9516 0.124359 40.212 0.0788912 40.5458C-0.0409792 41.3842 0.0334231 42.1616 0.607975 42.8617C0.926251 43.2483 1.14119 43.7164 1.4264 44.1315C1.4884 44.2211 1.63721 44.2943 1.74881 44.2984C2.4515 44.3228 3.15419 44.3432 3.85274 44.335C4.74971 44.3269 5.6384 44.331 6.51883 44.5263C6.94871 44.624 7.40752 44.624 7.8498 44.6443C8.35822 44.6647 8.87077 44.6566 9.38332 44.6566C10.2761 44.6566 11.169 44.6851 12.0577 44.8194C12.4958 44.8845 12.9464 44.9008 13.3928 44.9008C16.7781 44.8886 20.1634 44.7624 23.5198 44.3106C24.5945 44.1682 25.6568 43.928 26.6819 43.5739C28.3973 42.9797 29.5546 42.3895 30.7533 41.5226C31.4395 41.0261 31.9396 40.3911 32.2496 39.6056C32.6506 38.5881 33.2499 36.3251 33.4318 35.0552C33.4401 34.9942 33.4235 34.9291 33.4194 34.868C33.4442 34.8151 33.4855 34.7622 33.4938 34.7052C33.622 33.94 33.5972 33.1789 33.4938 32.4138C33.4855 32.3568 33.4483 32.3039 33.4235 32.251L33.4318 32.2591ZM8.98237 5.34369C9.03197 5.22159 9.11878 5.14019 9.23038 5.06693C9.49906 4.89598 9.76773 4.72911 10.0819 4.65585C10.3795 4.78609 10.5531 4.78609 10.8962 4.61922C10.9375 4.59887 10.9458 4.51747 10.9664 4.46863C11.7766 4.27733 12.595 4.15523 13.43 4.17151C14.0707 4.18372 14.7031 4.10232 15.3355 4.02906C16.0299 3.94359 16.7326 3.89068 17.4312 3.84183C17.8197 3.81334 18.1917 3.88661 18.5183 4.12267C18.7291 4.27326 18.9647 4.35873 19.2251 4.37908C19.6054 4.41165 19.9857 4.45642 20.3659 4.50119C21.267 4.60701 22.102 4.90819 22.8956 5.32334C23.404 5.5879 23.8918 5.88501 24.3878 6.16992C24.8507 6.43447 25.1608 6.83741 25.3468 7.31361C25.5948 7.96075 25.8014 8.6201 25.8221 9.32423C25.8386 9.88997 25.8841 10.4557 25.9006 11.0174C25.9213 11.6523 25.8552 12.2669 25.5452 12.8448C25.4294 13.0646 25.4046 13.3292 25.3137 13.5612C25.198 13.8583 25.0202 14.1228 24.7515 14.306C24.0819 14.7537 23.6975 15.3764 23.5156 16.1416C23.404 16.6015 23.0858 16.8864 22.6848 17.1184C21.6266 17.7249 20.5065 18.1604 19.283 18.3069C18.4811 18.5674 17.6544 18.5999 16.8236 18.5999C15.1619 18.5999 13.5044 18.5999 11.8427 18.5959C11.0036 18.5959 10.1976 18.4086 9.42052 18.1115C9.30478 18.0668 9.20558 17.9772 9.10224 17.908C9.00717 17.3789 8.99891 16.8417 9.00304 16.3044C9.00304 16.0643 8.99064 15.8282 8.87904 15.6125C8.89144 14.0455 8.87077 12.4826 8.72196 10.9238C8.59383 9.6132 8.61036 8.29857 8.60209 6.98393C8.60209 6.40598 8.76743 5.87687 8.99064 5.35183L8.98237 5.34369ZM29.629 33.9807C29.6042 34.229 29.5464 34.4814 29.4637 34.7134C29.2859 35.2099 28.9801 35.6047 28.4345 35.7431C28.0542 35.8367 27.7111 35.9792 27.4218 36.2437C26.2189 37.3508 24.7639 37.945 23.1932 38.3398C22.5071 38.5107 21.8292 38.6613 21.1224 38.6898C20.8041 38.702 20.4858 38.7346 20.1675 38.7753C18.386 39.0236 16.5962 38.9869 14.8064 38.9503C14.4261 38.9422 14.0459 38.8648 13.6656 38.816C13.4796 38.5392 13.1117 38.4782 12.7686 38.6695C11.9006 38.5148 11.0078 38.5352 10.1439 38.3479C9.962 38.3072 9.77186 38.2706 9.60653 38.1933C9.50732 38.1444 9.40812 38.0264 9.37505 37.9206C9.22211 37.424 9.27585 36.9397 9.53212 36.4838C9.67266 36.492 9.7636 36.4269 9.80493 36.2926C9.8628 36.1175 9.8628 35.9466 9.80907 35.7675C9.77186 35.6332 9.68506 35.564 9.54452 35.5599C9.49492 35.446 9.41639 35.3361 9.39572 35.214C9.29238 34.5953 9.17665 33.9767 9.11464 33.354C9.07744 32.9836 9.10638 32.601 9.13118 32.2265C9.15598 31.8521 9.20971 31.4777 9.25105 31.1032C9.45359 30.8509 9.47012 30.6351 9.31305 30.3462C9.40812 29.7764 9.50732 29.2025 9.60239 28.6327C9.63546 28.5838 9.69333 28.5431 9.7016 28.4902C9.78013 28.1483 9.80493 27.8064 9.7264 27.4646C9.714 27.4116 9.65613 27.3709 9.61893 27.3262C9.55692 27.082 9.50319 26.8378 9.43292 26.5976C9.30065 26.1703 9.25932 25.7348 9.23865 25.2952C9.20145 24.5545 9.46185 23.9439 10.0323 23.4515C10.1852 23.3212 10.3547 23.2317 10.5407 23.2195C12.2643 23.1299 13.9921 23.1014 15.7158 23.1543C16.6747 23.1828 17.6296 23.2195 18.5885 23.252C18.8448 23.2602 19.1011 23.2602 19.3532 23.2968C20.7503 23.5125 22.1557 23.5084 23.5611 23.4962C23.7512 23.4962 23.9455 23.5044 24.1357 23.5288C24.2597 23.5451 24.4002 23.5695 24.4994 23.6387C25.0243 23.9969 25.5576 24.3469 26.0536 24.7417C27.368 25.7836 28.389 27.0657 29.071 28.5879C29.4058 29.3368 29.6373 30.1182 29.6786 30.9526C29.7282 31.962 29.7324 32.9673 29.6249 33.9685L29.629 33.9807Z" fill="white"/>
</g>
<defs>
<clipPath id="clip0_4029_37052">
<rect width="500" height="46" fill="white"/>
</clipPath>
</defs>
</svg>
